0
SECTION
2
HEADER
9
$INSUNITS
70
4
9
$ACADVER
1
AC1014
9
$HANDSEED
5
FFFF
0
ENDSEC
0
SECTION
2
TABLES
0
TABLE
2
VPORT
5
8
100
AcDbSymbolTable
0
ENDTAB
0
TABLE
2
LTYPE
5
5
100
AcDbSymbolTable
0
LTYPE
5
14
100
AcDbSymbolTableRecord
100
AcDbLinetypeTableRecord
2
BYBLOCK
70
0
0
LTYPE
5
15
100
AcDbSymbolTableRecord
100
AcDbLinetypeTableRecord
2
BYLAYER
70
0
0
ENDTAB
0
TABLE
2
LAYER
5
2
100
AcDbSymbolTable
70
2
0
LAYER
5
50
100
AcDbSymbolTableRecord
100
AcDbLayerTableRecord
2
0
70
0
6
CONTINUOUS
0
ENDTAB
0
TABLE
2
STYLE
5
3
100
AcDbSymbolTable
70
1
0
STYLE
5
11
100
AcDbSymbolTableRecord
100
AcDbTextStyleTableRecord
2
STANDARD
70
0
0
ENDTAB
0
TABLE
2
VIEW
5
6
100
AcDbSymbolTable
70
0
0
ENDTAB
0
TABLE
2
UCS
5
7
100
AcDbSymbolTable
70
0
0
ENDTAB
0
TABLE
2
APPID
5
9
100
AcDbSymbolTable
70
2
0
APPID
5
12
100
AcDbSymbolTableRecord
100
AcDbRegAppTableRecord
2
ACAD
70
0
0
ENDTAB
0
TABLE
2
DIMSTYLE
5
A
100
AcDbSymbolTable
70
1
0
ENDTAB
0
TABLE
2
BLOCK_RECORD
5
1
100
AcDbSymbolTable
70
1
0
BLOCK_RECORD
5
1F
100
AcDbSymbolTableRecord
100
AcDbBlockTableRecord
2
*MODEL_SPACE
0
BLOCK_RECORD
5
1B
100
AcDbSymbolTableRecord
100
AcDbBlockTableRecord
2
*PAPER_SPACE
0
ENDTAB
0
ENDSEC
0
SECTION
2
BLOCKS
0
BLOCK
5
20
100
AcDbEntity
100
AcDbBlockBegin
2
*MODEL_SPACE
0
ENDBLK
5
21
100
AcDbEntity
100
AcDbBlockEnd
0
BLOCK
5
1C
100
AcDbEntity
100
AcDbBlockBegin
2
*PAPER_SPACE
0
ENDBLK
5
1D
100
AcDbEntity
100
AcDbBlockEnd
0
ENDSEC
0
SECTION
2
ENTITIES
0
ARC
5
100
100
AcDbEntity
8
0
100
AcDbCircle
10
-103.50000000000001
20
49.500000804662712
30
0
40
0.50000000000000711
210
0
220
0
230
1
100
AcDbArc
50
180
51
270
0
LINE
5
101
100
AcDbEntity
8
0
100
AcDbLine
10
-105.50000128149986
20
37.199999168515205
30
0
11
-101.00000128149986
21
37.199999168515205
31
0
0
ARC
5
102
100
AcDbEntity
8
0
100
AcDbCircle
10
-84.000000968575478
20
48.000000804662704
30
0
40
0.99999999999999645
210
0
220
-0
230
1
100
AcDbArc
50
90
51
180
0
ARC
5
103
100
AcDbEntity
8
0
100
AcDbCircle
10
-101.50000128149985
20
46.000000685453415
30
0
40
0.49999999999998934
210
0
220
-0
230
1
100
AcDbArc
50
0
51
90.000000000001634
0
LINE
5
104
100
AcDbEntity
8
0
100
AcDbLine
10
-100.00000119209291
20
29.500000447034836
30
0
11
-100.0000011920929
21
3.1575960778695311
31
0
0
LINE
5
105
100
AcDbEntity
8
0
100
AcDbLine
10
-99.000001177191734
20
48.000000804662704
30
0
11
-99.000001177191734
21
30.500000447034836
31
0
0
LINE
5
106
100
AcDbEntity
8
0
100
AcDbLine
10
-103.50000000000001
20
49.000000804662704
30
0
11
-100.00000117719173
21
49.000000804662704
31
0
0
ARC
5
107
100
AcDbEntity
8
0
100
AcDbCircle
10
-103.50000000000003
20
51.500000804662704
30
0
40
0.49999999999999822
210
0
220
-0
230
1
100
AcDbArc
50
89.99999999999838
51
180
0
ARC
5
108
100
AcDbEntity
8
0
100
AcDbCircle
10
-99.500001177191734
20
30.500000447034836
30
0
40
0.49999999999999378
210
0
220
0
230
1
100
AcDbArc
50
-90
51
0
0
LINE
5
109
100
AcDbEntity
8
0
100
AcDbLine
10
-22.500000029802322
20
4.0000000596046448
30
0
11
-80.000000894069672
21
4.0000000596046448
31
0
0
ARC
5
110
100
AcDbEntity
8
0
100
AcDbCircle
10
-99.500001192092924
20
29.500000447034836
30
0
40
0.49999999999999822
210
0
220
-0
230
1
100
AcDbArc
50
90
51
180
0
LINE
5
111
100
AcDbEntity
8
0
100
AcDbLine
10
-20.5
20
54
30
0
11
-20.5
21
54
31
0
0
LINE
5
112
100
AcDbEntity
8
0
100
AcDbLine
10
-85.000000968575478
20
48.000000804662704
30
0
11
-85.000000968575478
21
25.000000357627869
31
0
0
LINE
5
113
100
AcDbEntity
8
0
100
AcDbLine
10
-80.000000894069672
20
2.1575960778695347
30
0
11
-22.500000029802329
21
2.1575960778695347
31
0
0
LINE
5
114
100
AcDbEntity
8
0
100
AcDbLine
10
-80.000000894069672
20
4.0000000596046448
30
0
11
-81.000000908970833
21
4.0000000596046448
31
0
0
LINE
5
115
100
AcDbEntity
8
0
100
AcDbLine
10
-22.5
20
52.000000804662704
30
0
11
-103.50000000000001
21
52.000000804662704
31
0
0
LINE
5
116
100
AcDbEntity
8
0
100
AcDbLine
10
-84.000000968575478
20
49.000000804662704
30
0
11
-22.5
21
49.000000804662704
31
0
0
LINE
5
117
100
AcDbEntity
8
0
100
AcDbLine
10
-80.000000894069672
20
2.1575960778695347
30
0
11
-99.000001192092896
21
2.1575960778695347
31
0
0
ARC
5
118
100
AcDbEntity
8
0
100
AcDbCircle
10
-100.00000117719173
20
48.000000804662704
30
0
40
0.99999999999999645
210
0
220
-0
230
1
100
AcDbArc
50
0
51
90
0
ARC
5
119
100
AcDbEntity
8
0
100
AcDbCircle
10
-101.50000128149986
20
37.699999168515212
30
0
40
0.50000000000000711
210
0
220
0
230
1
100
AcDbArc
50
270
51
360
0
LINE
5
120
100
AcDbEntity
8
0
100
AcDbLine
10
-105.50000128149986
20
46.500000685453415
30
0
11
-101.50000128149986
21
46.500000685453415
31
0
0
LINE
5
121
100
AcDbEntity
8
0
100
AcDbLine
10
-106.00000128149986
20
36.699999168515205
30
0
11
-106.00000128149986
21
36.199999190866947
31
0
0
LINE
5
122
100
AcDbEntity
8
0
100
AcDbLine
10
-101.50000128149986
20
37.199999168515205
30
0
11
-105.50000128149986
21
37.199999168515205
31
0
0
LINE
5
123
100
AcDbEntity
8
0
100
AcDbLine
10
-106.00000128149986
20
47.000000685453415
30
0
11
-106.00000128149986
21
47.500000707805157
31
0
0
ARC
5
124
100
AcDbEntity
8
0
100
AcDbCircle
10
-20.5
20
53.500000000000007
30
0
40
0.49999999999999822
210
0
220
-0
230
1
100
AcDbArc
50
0
51
90
0
ARC
5
125
100
AcDbEntity
8
0
100
AcDbCircle
10
-22.500000029802322
20
2.6575960778695329
30
0
40
0.49999999999999822
210
0
220
0
230
1
100
AcDbArc
50
269.9999999999992
51
360
0
LINE
5
126
100
AcDbEntity
8
0
100
AcDbLine
10
-81.000000908970833
20
22.000000357627869
30
0
11
-81.000000908970833
21
17.000000223517418
31
0
0
ARC
5
127
100
AcDbEntity
8
0
100
AcDbCircle
10
-83.000000953674316
20
5.0000000596046412
30
0
40
0.99999999999999645
210
0
220
0
230
1
100
AcDbArc
50
180
51
270
0
ARC
5
128
100
AcDbEntity
8
0
100
AcDbCircle
10
-105.50000128149988
20
47.000000685453415
30
0
40
0.49999999999998934
210
0
220
0
230
1
100
AcDbArc
50
180
51
270.00000000000159
0
LINE
5
129
100
AcDbEntity
8
0
100
AcDbLine
10
-104.00000000000003
20
51.500000804662704
30
0
11
-104.00000000000003
21
49.500000804662704
31
0
0
LINE
5
130
100
AcDbEntity
8
0
100
AcDbLine
10
-81.000000908970833
20
4.0000000596046448
30
0
11
-83.000000953674316
21
4.0000000596046448
31
0
0
LINE
5
131
100
AcDbEntity
8
0
100
AcDbLine
10
-101.00000128149986
20
46.000000685453415
30
0
11
-101.00000128149986
21
37.699999168515205
31
0
0
ARC
5
132
100
AcDbEntity
8
0
100
AcDbCircle
10
-105.50000128149986
20
36.699999168515198
30
0
40
0.50000000000000711
210
0
220
-0
230
1
100
AcDbArc
50
90
51
180
0
ARC
5
133
100
AcDbEntity
8
0
100
AcDbCircle
10
-99.000001192092896
20
3.1575960778695222
30
0
40
0.99999999999999645
210
0
220
0
230
1
100
AcDbArc
50
180
51
270
0
LINE
5
134
100
AcDbEntity
8
0
100
AcDbLine
10
-84.000000953674316
20
14.000000223517421
30
0
11
-84.000000953674316
21
5.0000000596046412
31
0
0
ARC
5
135
100
AcDbEntity
8
0
100
AcDbCircle
10
-22.499999999999996
20
51.500000804662704
30
0
40
0.49999999999999822
210
0
220
-0
230
1
100
AcDbArc
50
0
51
90.000000000000398
0
ARC
5
136
100
AcDbEntity
8
0
100
AcDbCircle
10
-22.5
20
49.500000804662704
30
0
40
0.49999999999999822
210
0
220
0
230
1
100
AcDbArc
50
-90
51
0
0
LINE
5
137
100
AcDbEntity
8
0
100
AcDbLine
10
-22.000000029802322
20
2.6575960778695062
30
0
11
-22.000000029802322
21
3.5000000596046466
31
0
0
LINE
5
138
100
AcDbEntity
8
0
100
AcDbLine
10
-22
20
49.500000804662704
30
0
11
-21.999999999999996
21
51.500000804662704
31
0
0
ARC
5
139
100
AcDbEntity
8
0
100
AcDbCircle
10
-22.500000029802322
20
3.5000000596046466
30
0
40
0.49999999999999822
210
0
220
-0
230
1
100
AcDbArc
50
0
51
90
0
LINE
5
140
100
AcDbEntity
8
0
100
AcDbLine
10
-20
20
53.500000000000007
30
0
11
-20
21
53.500000000000007
31
0
0
ARC
5
141
100
AcDbEntity
8
0
100
AcDbCircle
10
-105.49999764189124
20
53.499998804181814
30
0
40
0.4999999888241291
210
0
220
-0
230
1
100
AcDbArc
50
90
51
180
0
LINE
5
142
100
AcDbEntity
8
0
100
AcDbLine
10
-82.000000908970833
20
23.000000357627862
30
0
11
-84.000001117587075
21
23.000000357627869
31
0
0
LINE
5
143
100
AcDbEntity
8
0
100
AcDbLine
10
-85.000001117587075
20
24.000000506639481
30
0
11
-85.000000968575478
21
25.000000357627869
31
0
0
LINE
5
144
100
AcDbEntity
8
0
100
AcDbLine
10
-82.000000908970833
20
16.000000223517425
30
0
11
-83.000001102685914
21
16.000000223517421
31
0
0
LINE
5
145
100
AcDbEntity
8
0
100
AcDbLine
10
-84.000001102685928
20
15.00000007450581
30
0
11
-84.000000953674316
21
14.000000223517421
31
0
0
ARC
5
146
100
AcDbEntity
8
0
100
AcDbCircle
10
-84.000001117587075
20
24.000000357627876
30
0
40
1.0000000000000075
210
0
220
-0
230
1
100
AcDbArc
50
179.99999146226355
51
270
0
ARC
5
147
100
AcDbEntity
8
0
100
AcDbCircle
10
-82.000000908970833
20
22.000000357627869
30
0
40
0.99999999999999645
210
0
220
0
230
1
100
AcDbArc
50
0
51
90
0
ARC
5
148
100
AcDbEntity
8
0
100
AcDbCircle
10
-82.000000908970833
20
17.000000223517421
30
0
40
0.99999999999999645
210
-0
220
0
230
1
100
AcDbArc
50
270
51
360
0
ARC
5
149
100
AcDbEntity
8
0
100
AcDbCircle
10
-83.000001102685928
20
15.000000223517418
30
0
40
1.0000000000000031
210
0
220
-0
230
1
100
AcDbArc
50
89.99999999999919
51
180.00000853773648
0
ENDSEC
0
SECTION
2
OBJECTS
0
DICTIONARY
5
C
100
AcDbDictionary
3
ACAD_GROUP
350
D
3
ACAD_MLINESTYLE
350
17
0
DICTIONARY
5
D
100
AcDbDictionary
0
DICTIONARY
5
1A
330
C
100
AcDbDictionary
0
DICTIONARY
5
17
100
AcDbDictionary
0
ENDSEC
0
EOF
