0
SECTION
2
HEADER
9
$INSUNITS
70
4
9
$ACADVER
1
AC1014
9
$HANDSEED
5
FFFF
0
ENDSEC
0
SECTION
2
TABLES
0
TABLE
2
VPORT
5
8
100
AcDbSymbolTable
0
ENDTAB
0
TABLE
2
LTYPE
5
5
100
AcDbSymbolTable
0
LTYPE
5
14
100
AcDbSymbolTableRecord
100
AcDbLinetypeTableRecord
2
BYBLOCK
70
0
0
LTYPE
5
15
100
AcDbSymbolTableRecord
100
AcDbLinetypeTableRecord
2
BYLAYER
70
0
0
ENDTAB
0
TABLE
2
LAYER
5
2
100
AcDbSymbolTable
70
2
0
LAYER
5
50
100
AcDbSymbolTableRecord
100
AcDbLayerTableRecord
2
0
70
0
6
CONTINUOUS
0
ENDTAB
0
TABLE
2
STYLE
5
3
100
AcDbSymbolTable
70
1
0
STYLE
5
11
100
AcDbSymbolTableRecord
100
AcDbTextStyleTableRecord
2
STANDARD
70
0
0
ENDTAB
0
TABLE
2
VIEW
5
6
100
AcDbSymbolTable
70
0
0
ENDTAB
0
TABLE
2
UCS
5
7
100
AcDbSymbolTable
70
0
0
ENDTAB
0
TABLE
2
APPID
5
9
100
AcDbSymbolTable
70
2
0
APPID
5
12
100
AcDbSymbolTableRecord
100
AcDbRegAppTableRecord
2
ACAD
70
0
0
ENDTAB
0
TABLE
2
DIMSTYLE
5
A
100
AcDbSymbolTable
70
1
0
ENDTAB
0
TABLE
2
BLOCK_RECORD
5
1
100
AcDbSymbolTable
70
1
0
BLOCK_RECORD
5
1F
100
AcDbSymbolTableRecord
100
AcDbBlockTableRecord
2
*MODEL_SPACE
0
BLOCK_RECORD
5
1B
100
AcDbSymbolTableRecord
100
AcDbBlockTableRecord
2
*PAPER_SPACE
0
ENDTAB
0
ENDSEC
0
SECTION
2
BLOCKS
0
BLOCK
5
20
100
AcDbEntity
100
AcDbBlockBegin
2
*MODEL_SPACE
0
ENDBLK
5
21
100
AcDbEntity
100
AcDbBlockEnd
0
BLOCK
5
1C
100
AcDbEntity
100
AcDbBlockBegin
2
*PAPER_SPACE
0
ENDBLK
5
1D
100
AcDbEntity
100
AcDbBlockEnd
0
ENDSEC
0
SECTION
2
ENTITIES
0
LINE
5
100
100
AcDbEntity
8
0
100
AcDbLine
10
-22.000000298023224
20
24.000000804662704
30
0
11
-22.200000298023227
21
24.000000804662704
31
0
0
LINE
5
101
100
AcDbEntity
8
0
100
AcDbLine
10
-22.000000298023224
20
24.000000804662704
30
0
11
-22.000000298023224
21
24.200000804662704
31
0
0
LWPOLYLINE
5
102
100
AcDbEntity
8
0
100
AcDbPolyline
90
4
70
1
43
0.0
10
-65.993042710308472
20
29.951416801761468
10
-21.99761303151373
20
30.004038097686397
10
-22.002387624137327
20
33.995962855987912
10
-65.997817302932077
20
33.943341560062976
0
ARC
5
103
100
AcDbEntity
8
0
100
AcDbCircle
10
-104.99999763071537
20
52.999998793005943
30
0
40
0.99999999999999645
210
0
220
-0
230
1
100
AcDbArc
50
90
51
180
0
LWPOLYLINE
5
104
100
AcDbEntity
8
0
100
AcDbPolyline
90
4
70
1
43
0.0
10
-66.033086064525563
20
21.956327362963712
10
-22.037095689475162
20
21.855475067914568
10
-22.022320966479253
20
28.300827356673835
10
-66.018311341529667
20
28.401679651722972
0
LINE
5
105
100
AcDbEntity
8
0
100
AcDbLine
10
-23.114562806185379
20
33.110593782395412
30
2.5576132686013318e-15
11
-23.785776563886884
21
33.109790968602461
31
2.4754132318138176e-15
0
LINE
5
106
100
AcDbEntity
8
0
100
AcDbLine
10
-23.785776563886888
20
33.109790968602461
30
2.4754132318138176e-15
11
-23.785561174813967
21
32.929709223279687
31
2.4754132318138176e-15
0
LINE
5
107
100
AcDbEntity
8
0
100
AcDbLine
10
-23.785561174813964
20
32.929709223279687
30
2.4754132318138176e-15
11
-23.114347417112459
21
32.930512037072639
31
2.5576132686013318e-15
0
SPLINE
5
108
100
AcDbEntity
8
0
100
AcDbSpline
70
0
71
2
72
6
73
3
74
0
42
0.000000001
43
0.0000000001
44
0.0000000001
40
0
40
0
40
0
40
1
40
1
40
1
10
-23.114347417112459
20
32.930512037072631
30
2.5576132686013318e-15
10
-23.113662088406098
20
32.35752480105608
30
2.5576132686013318e-15
10
-22.597630762537399
20
32.071647904556002
30
2.6207669606312942e-15
0
LINE
5
109
100
AcDbEntity
8
0
100
AcDbLine
10
-22.597630762537399
20
32.071647904556002
30
2.6207669606312942e-15
11
-22.466818887289293
21
32.202772998357609
31
2.6368059901966881e-15
0
SPLINE
5
110
100
AcDbEntity
8
0
100
AcDbSpline
70
0
71
2
72
6
73
3
74
0
42
0.000000001
43
0.0000000001
44
0.0000000001
40
0
40
0
40
0
40
1
40
1
40
1
10
-22.466818887289293
20
32.202772998357617
30
2.6368059901966881e-15
10
-22.933707618274468
20
32.46415198830875
30
2.5796669376753722e-15
10
-22.926080171777627
20
32.930737216517457
30
2.5806693730313151e-15
0
LINE
5
111
100
AcDbEntity
8
0
100
AcDbLine
10
-22.926080171777627
20
32.930737216517457
30
2.5806693730313151e-15
11
-22.107526799186644
21
32.93171625773978
31
2.6809133215015212e-15
0
LINE
5
112
100
AcDbEntity
8
0
100
AcDbLine
10
-22.107526799186637
20
32.93171625773978
30
2.6809133215015212e-15
11
-22.107742188259557
21
33.111798003062553
31
2.6809133215015212e-15
0
LINE
5
113
100
AcDbEntity
8
0
100
AcDbLine
10
-22.107742188259564
20
33.111798003062553
30
2.6809133215015212e-15
11
-22.926295560850548
21
33.110818961840231
31
2.5806693730313151e-15
0
LINE
5
114
100
AcDbEntity
8
0
100
AcDbLine
10
-22.926295560850548
20
33.110818961840231
30
2.5806693730313151e-15
11
-22.926667596497655
21
33.421869228896185
31
2.5806693730313151e-15
0
SPLINE
5
115
100
AcDbEntity
8
0
100
AcDbSpline
70
0
71
2
72
6
73
3
74
0
42
0.000000001
43
0.0000000001
44
0.0000000001
40
0
40
0
40
0
40
1
40
1
40
1
10
-22.926667596497655
20
33.421869228896185
30
2.5806693730313151e-15
10
-22.697443256291354
20
33.397586711420168
30
2.6087376816140018e-15
10
-22.329074684889946
20
33.381656279913798
30
2.6538474551180246e-15
0
LINE
5
116
100
AcDbEntity
8
0
100
AcDbLine
10
-22.329074684889946
20
33.381656279913798
30
2.6538474551180246e-15
11
-22.255610466743896
21
33.553640564444592
31
2.6628694120999118e-15
0
SPLINE
5
117
100
AcDbEntity
8
0
100
AcDbSpline
70
0
71
2
72
6
73
3
74
0
42
0.000000001
43
0.0000000001
44
0.0000000001
40
0
40
0
40
0
40
1
40
1
40
1
10
-22.255610466743896
20
33.553640564444592
30
2.6628694120999118e-15
10
-23.04962677120923
20
33.56906204355181
30
2.5656327879461937e-15
10
-23.475431131953567
20
33.699521389390853
30
2.5135059395775812e-15
0
LINE
5
118
100
AcDbEntity
8
0
100
AcDbLine
10
-23.475431131953567
20
33.699521389390853
30
2.5135059395775812e-15
11
-23.565266480597913
21
33.527517598466062
31
2.5024790959162313e-15
0
SPLINE
5
119
100
AcDbEntity
8
0
100
AcDbSpline
70
0
71
2
72
6
73
3
74
0
42
0.000000001
43
0.0000000001
44
0.0000000001
40
0
40
0
40
0
40
1
40
1
40
1
10
-23.565266480597913
20
33.527517598466062
30
2.5024790959162313e-15
10
-23.589754447674331
20
33.470189429242957
30
2.4994717898484031e-15
10
-23.491577101544365
20
33.511234563133996
30
2.511501050617036e-15
0
SPLINE
5
120
100
AcDbEntity
8
0
100
AcDbSpline
70
0
71
2
72
6
73
3
74
0
42
0.000000001
43
0.0000000001
44
0.0000000001
40
0
40
0
40
0
40
1
40
1
40
1
10
-23.491577101544365
20
33.511234563133996
30
2.511501050617036e-15
10
-23.319631904195923
20
33.470512512763229
30
2.5325522843351335e-15
10
-23.114964213037297
20
33.446200623993285
30
2.5576132686013318e-15
0
LINE
5
121
100
AcDbEntity
8
0
100
AcDbLine
10
-23.114964213037297
20
33.446200623993285
30
2.5576132686013318e-15
11
-23.114562806185379
21
33.110593782395412
31
2.5576132686013318e-15
0
LINE
5
122
100
AcDbEntity
8
0
100
AcDbLine
10
-24.00649224596599
20
32.863960658555328
30
2.4483473677114034e-15
11
-24.006707635038911
21
33.044042403878102
31
2.4483473677114034e-15
0
LINE
5
123
100
AcDbEntity
8
0
100
AcDbLine
10
-24.006707635038914
20
33.044042403878102
30
2.4483473677114034e-15
11
-25.83208143929134
21
33.041859142211415
31
2.2248033891518325e-15
0
LINE
5
124
100
AcDbEntity
8
0
100
AcDbLine
10
-25.83208143929134
20
33.041859142211415
30
2.2248033891518325e-15
11
-25.831866050218419
21
32.861777396888641
31
2.2248033891518325e-15
0
LINE
5
125
100
AcDbEntity
8
0
100
AcDbLine
10
-25.831866050218416
20
32.861777396888641
30
2.2248033891518325e-15
11
-24.00649224596599
21
32.863960658555328
31
2.4483473677114034e-15
0
LINE
5
126
100
AcDbEntity
8
0
100
AcDbLine
10
-26.027868287575046
20
32.485007862074731
30
2.2007448676145657e-15
11
-26.371670568568383
21
32.492782164684741
31
2.1586424001783712e-15
0
SPLINE
5
127
100
AcDbEntity
8
0
100
AcDbSpline
70
0
71
2
72
6
73
3
74
0
42
0.000000001
43
0.0000000001
44
0.0000000001
40
0
40
0
40
0
40
1
40
1
40
1
10
-26.371670568568383
20
32.492782164684741
30
2.1586424001783712e-15
10
-26.667113413310709
20
33.130901393018071
30
2.1225545813751527e-15
10
-26.823431532739516
20
33.793743409411263
30
2.1035082366176004e-15
0
LINE
5
128
100
AcDbEntity
8
0
100
AcDbLine
10
-26.823431532739516
20
33.793743409411263
30
2.1035082366176004e-15
11
-27.011620603932435
21
33.728034080680253
31
2.0804521139389581e-15
0
SPLINE
5
129
100
AcDbEntity
8
0
100
AcDbSpline
70
0
71
2
72
6
73
3
74
0
42
0.000000001
43
0.0000000001
44
0.0000000001
40
0
40
0
40
0
40
1
40
1
40
1
10
-27.011620603932435
20
33.728034080680253
30
2.0804521139389581e-15
10
-27.085231361453094
20
33.678832669237806
30
2.0714301957354722e-15
10
-26.995161192181758
20
33.654383863648988
30
2.0824570211481627e-15
0
SPLINE
5
130
100
AcDbEntity
8
0
100
AcDbSpline
70
0
71
2
72
6
73
3
74
0
42
0.000000001
43
0.0000000001
44
0.0000000001
40
0
40
0
40
0
40
1
40
1
40
1
10
-26.995161192181758
20
33.654383863648988
30
2.0824570211481627e-15
10
-26.838940976650171
20
33.073396996387871
30
2.101503365905715e-15
10
-26.576328543860861
20
32.508908553353507
30
2.1335814067878432e-15
0
LINE
5
131
100
AcDbEntity
8
0
100
AcDbLine
10
-26.576328543860861
20
32.508908553353507
30
2.1335814067878432e-15
11
-27.427673073428615
21
32.548817999470316
31
2.0293276918019589e-15
0
SPLINE
5
132
100
AcDbEntity
8
0
100
AcDbSpline
70
0
71
2
72
6
73
3
74
0
42
0.000000001
43
0.0000000001
44
0.0000000001
40
0
40
0
40
0
40
1
40
1
40
1
10
-27.427673073428615
20
32.548817999470316
30
2.0293276918019589e-15
10
-27.256050512565928
20
32.778218493112647
30
2.0503789802660341e-15
10
-27.157951787790616
20
32.884747924766685
30
2.0624082045373487e-15
0
LINE
5
133
100
AcDbEntity
8
0
100
AcDbLine
10
-27.157951787790616
20
32.884747924766685
30
2.0624082045373487e-15
11
-27.321799449819046
21
32.999149563819103
31
2.0423594244238535e-15
0
SPLINE
5
134
100
AcDbEntity
8
0
100
AcDbSpline
70
0
71
2
72
6
73
3
74
0
42
0.000000001
43
0.0000000001
44
0.0000000001
40
0
40
0
40
0
40
1
40
1
40
1
10
-27.321799449819046
20
32.999149563819103
30
2.0423594244238539e-15
10
-27.599745397134928
20
32.695951997210564
30
2.0082764763325212e-15
10
-27.853006972999239
20
32.286371855239373
30
1.9772009073036542e-15
0
LINE
5
135
100
AcDbEntity
8
0
100
AcDbLine
10
-27.853006972999239
20
32.286371855239373
30
1.9772009073036542e-15
11
-27.672778520396569
21
32.163804147907193
31
1.9992545581290348e-15
0
LINE
5
136
100
AcDbEntity
8
0
100
AcDbLine
10
-27.672778520396577
20
32.1638041479072
30
1.9992545581290348e-15
11
-27.542064474896392
21
32.376784688953009
31
2.0152935968187585e-15
0
LINE
5
137
100
AcDbEntity
8
0
100
AcDbLine
10
-27.542064474896392
20
32.376784688953009
30
2.0152935968187581e-15
11
-26.166767833087285
21
32.272017530657024
31
2.1837033935688992e-15
0
SPLINE
5
138
100
AcDbEntity
8
0
100
AcDbSpline
70
0
71
2
72
6
73
3
74
0
42
0.000000001
43
0.0000000001
44
0.0000000001
40
0
40
0
40
0
40
1
40
1
40
1
10
-26.166767833087285
20
32.272017530657024
30
2.1837033935688996e-15
10
-26.117556630916489
20
32.19022097510129
30
2.1897180422018752e-15
10
-26.093098034955766
20
32.272105644360572
30
2.1927253482697043e-15
0
LINE
5
139
100
AcDbEntity
8
0
100
AcDbLine
10
-26.093098034955766
20
32.272105644360572
30
2.1927253482697043e-15
11
-26.027868287575046
21
32.485007862074731
31
2.2007448676145657e-15
0
SPLINE
5
140
100
AcDbEntity
8
0
100
AcDbSpline
70
0
71
2
72
6
73
3
74
0
42
0.000000001
43
0.0000000001
44
0.0000000001
40
0
40
0
40
0
40
1
40
1
40
1
10
-29.008225203466907
20
33.1690289094579
30
1.8358568651639706e-15
10
-29.188512398479205
20
33.340709765873925
30
1.81380321433859e-15
10
-29.352477545594216
20
33.553337926611285
30
1.7937544342250948e-15
0
LINE
5
141
100
AcDbEntity
8
0
100
AcDbLine
10
-29.352477545594216
20
33.553337926611285
30
1.7937544342250948e-15
11
-28.812232756660407
21
33.553984093295369
31
1.8599153867012374e-15
0
LINE
5
142
100
AcDbEntity
8
0
100
AcDbLine
10
-28.812232756660407
20
33.553984093295369
30
1.8599153867012374e-15
11
-28.689244061643397
21
33.382234629770295
31
1.8749519900350182e-15
0
SPLINE
5
143
100
AcDbEntity
8
0
100
AcDbSpline
70
0
71
2
72
6
73
3
74
0
42
0.000000001
43
0.0000000001
44
0.0000000001
40
0
40
0
40
0
40
1
40
1
40
1
10
-28.689244061643397
20
33.382234629770295
30
1.8749519900350182e-15
10
-28.869208172957194
20
33.283792793696406
30
1.8528983392096372e-15
10
-29.008225203466907
20
33.1690289094579
30
1.8358568651639706e-15
0
SPLINE
5
144
100
AcDbEntity
8
0
100
AcDbSpline
70
0
71
2
72
6
73
3
74
0
42
0.000000001
43
0.0000000001
44
0.0000000001
40
0
40
0
40
0
40
1
40
1
40
1
10
-29.598073109163661
20
33.577600714064658
30
1.7636812275575337e-15
10
-29.319285186478119
20
33.176842448417716
30
1.7977641756488668e-15
10
-28.950603619862243
20
32.898974898582779
30
1.8428739126555709e-15
0
LINE
5
145
100
AcDbEntity
8
0
100
AcDbLine
10
-28.950603619862243
20
32.898974898582779
30
1.8428739126555709e-15
11
-29.711858101213625
21
32.8980643904316
31
1.7496470595796956e-15
0
LINE
5
146
100
AcDbEntity
8
0
100
AcDbLine
10
-29.711858101213629
20
32.8980643904316
30
1.7496470595796958e-15
11
-29.710839898347761
21
32.046768887407318
31
1.7496470595796958e-15
0
LINE
5
147
100
AcDbEntity
8
0
100
AcDbLine
10
-29.710839898347761
20
32.046768887407318
30
1.7496470595796958e-15
11
-29.547129302060604
21
32.046964695558216
31
1.769695839693191e-15
0
LINE
5
148
100
AcDbEntity
8
0
100
AcDbLine
10
-29.547129302060601
20
32.046964695558216
30
1.7696958396931908e-15
11
-29.547217415764145
21
32.120634493689735
31
1.7696958396931908e-15
0
LINE
5
149
100
AcDbEntity
8
0
100
AcDbLine
10
-29.547217415764152
20
32.120634493689735
30
1.7696958396931908e-15
11
-28.802333934436881
21
32.121525421097125
31
1.8609178220571803e-15
0
LINE
5
150
100
AcDbEntity
8
0
100
AcDbLine
10
-28.802333934436881
20
32.121525421097118
30
1.8609178220571803e-15
11
-28.802216449439406
21
32.023298973917925
31
1.8609178220571803e-15
0
LINE
5
151
100
AcDbEntity
8
0
100
AcDbLine
10
-28.802216449439403
20
32.023298973917925
30
1.8609178220571803e-15
11
-28.638505257106225
21
32.023494782781725
31
1.880966675165313e-15
0
LINE
5
152
100
AcDbEntity
8
0
100
AcDbLine
10
-28.638505257106225
20
32.023494782781725
30
1.8809666751653126e-15
11
-28.639298280438158
21
32.686522965965416
31
1.8809666751653126e-15
0
SPLINE
5
153
100
AcDbEntity
8
0
100
AcDbSpline
70
0
71
2
72
6
73
3
74
0
42
0.000000001
43
0.0000000001
44
0.0000000001
40
0
40
0
40
0
40
1
40
1
40
1
10
-28.639298280438158
20
32.686522965965423
30
1.8809666751653126e-15
10
-28.393566247173467
20
32.547662730595832
30
1.9110398088382367e-15
10
-28.188839441076453
20
32.474237693187611
30
1.9361008387260834e-15
0
LINE
5
154
100
AcDbEntity
8
0
100
AcDbLine
10
-28.188839441076453
20
32.474237693187611
30
1.9361008387260834e-15
11
-28.123580620424818
21
32.662583261497637
31
1.9441203215736265e-15
0
SPLINE
5
155
100
AcDbEntity
8
0
100
AcDbSpline
70
0
71
2
72
6
73
3
74
0
42
0.000000001
43
0.0000000001
44
0.0000000001
40
0
40
0
40
0
40
1
40
1
40
1
10
-28.123580620424818
20
32.662583261497637
30
1.9441203215736265e-15
10
-28.508428184498928
20
32.768535059070899
30
1.8970056408603992e-15
10
-28.868934041474649
20
33.054597899289789
30
1.8528983392096372e-15
0
SPLINE
5
156
100
AcDbEntity
8
0
100
AcDbSpline
70
0
71
2
72
6
73
3
74
0
42
0.000000001
43
0.0000000001
44
0.0000000001
40
0
40
0
40
0
40
1
40
1
40
1
10
-28.868934041474649
20
33.054597899289789
30
1.8528983392096372e-15
10
-28.795362445530699
20
33.136541385286208
30
1.8619202574131232e-15
10
-28.599065899723477
20
33.267744877370788
30
1.885978851945027e-15
0
SPLINE
5
157
100
AcDbEntity
8
0
100
AcDbSpline
70
0
71
2
72
6
73
3
74
0
42
0.000000001
43
0.0000000001
44
0.0000000001
40
0
40
0
40
0
40
1
40
1
40
1
10
-28.599065899723477
20
33.267744877370788
30
1.885978851945027e-15
10
-28.435169285568207
20
33.112415514740832
30
1.9060276320585222e-15
10
-28.238589413863451
20
33.006238537188068
30
1.9300861535957886e-15
0
LINE
5
158
100
AcDbEntity
8
0
100
AcDbLine
10
-28.238589413863451
20
33.006238537188068
30
1.9300861535957886e-15
11
-28.13233396432399
21
33.137334408974596
31
1.9431178862176836e-15
0
SPLINE
5
159
100
AcDbEntity
8
0
100
AcDbSpline
70
0
71
2
72
6
73
3
74
0
42
0.000000001
43
0.0000000001
44
0.0000000001
40
0
40
0
40
0
40
1
40
1
40
1
10
-28.13233396432399
20
33.137334408974596
30
1.9431178862176836e-15
10
-28.582812384696837
20
33.365990905293785
30
1.8879837226569132e-15
10
-28.763491196100034
20
33.865093028789872
30
1.8659300718315322e-15
0
LINE
5
160
100
AcDbEntity
8
0
100
AcDbLine
10
-28.763491196100034
20
33.865093028789872
30
1.8659300718315322e-15
11
-28.943524436241375
21
33.82394984109898
31
1.8438763480115137e-15
0
SPLINE
5
161
100
AcDbEntity
8
0
100
AcDbSpline
70
0
71
2
72
6
73
3
74
0
42
0.000000001
43
0.0000000001
44
0.0000000001
40
0
40
0
40
0
40
1
40
1
40
1
10
-28.943524436241375
20
33.82394984109898
30
1.8438763480115137e-15
10
-28.976227274802007
20
33.791168679563157
30
1.8398666065877422e-15
10
-28.918918388299687
20
33.783051712867305
30
1.8468837270739799e-15
0
LINE
5
162
100
AcDbEntity
8
0
100
AcDbLine
10
-28.918918388299687
20
33.783051712867305
30
1.8468837270739799e-15
11
-28.886088274547916
21
33.709421076223379
31
1.8508934684977514e-15
0
LINE
5
163
100
AcDbEntity
8
0
100
AcDbLine
10
-28.886088274547916
20
33.709421076223379
30
1.8508934684977514e-15
11
-29.434519159539803
21
33.70876511845448
31
1.7837300076710289e-15
0
LINE
5
164
100
AcDbEntity
8
0
100
AcDbLine
10
-29.434519159539803
20
33.708765118454487
30
1.7837300076710289e-15
11
-29.450929321051515
21
33.741487537758914
31
1.7817251369591431e-15
0
LINE
5
165
100
AcDbEntity
8
0
100
AcDbLine
10
-29.450929321051511
20
33.741487537758914
30
1.7817251369591431e-15
11
-29.622678561059324
21
33.618498843009249
31
1.760673921489705e-15
0
SPLINE
5
166
100
AcDbEntity
8
0
100
AcDbSpline
70
0
71
2
72
6
73
3
74
0
42
0.000000001
43
0.0000000001
44
0.0000000001
40
0
40
0
40
0
40
1
40
1
40
1
10
-29.622678561059324
20
33.618498843009242
30
1.760673921489705e-15
10
-29.65538199566598
20
33.58571768076051
30
1.756664107071296e-15
10
-29.598073109163661
20
33.577600714064658
30
1.7636812275575337e-15
0
LINE
5
167
100
AcDbEntity
8
0
100
AcDbLine
10
-29.547961487058359
20
32.742735027801643
30
1.7696958396931908e-15
11
-28.803078005731088
21
32.743625955209026
31
1.8609178220571803e-15
0
LINE
5
168
100
AcDbEntity
8
0
100
AcDbLine
10
-28.803078005731088
20
32.743625955209026
30
1.8609178220571803e-15
11
-28.802519952215874
21
32.277050517372224
31
1.8609178220571803e-15
0
LINE
5
169
100
AcDbEntity
8
0
100
AcDbLine
10
-28.802519952215874
20
32.277050517372217
30
1.8609178220571803e-15
11
-29.547403433543145
21
32.276159589964834
31
1.769695839693191e-15
0
LINE
5
170
100
AcDbEntity
8
0
100
AcDbLine
10
-29.547403433543145
20
32.276159589964834
30
1.7696958396931908e-15
11
-29.547961487058359
21
32.742735027801643
31
1.7696958396931908e-15
0
SPLINE
5
171
100
AcDbEntity
8
0
100
AcDbSpline
70
0
71
2
72
6
73
3
74
0
42
0.000000001
43
0.0000000001
44
0.0000000001
40
0
40
0
40
0
40
1
40
1
40
1
10
-24.799486452692754
20
26.124377727700328
30
2.354491714264346e-15
10
-25.278652654794943
20
26.58386744453788
30
2.2956819422326786e-15
10
-25.713912558630501
20
27.15239737636271
30
2.242218516430919e-15
0
LINE
5
172
100
AcDbEntity
8
0
100
AcDbLine
10
-25.713912558630501
20
27.15239737636271
30
2.242218516430919e-15
11
-24.273261648663432
21
27.149094962906481
31
2.4186478325259215e-15
0
LINE
5
173
100
AcDbEntity
8
0
100
AcDbLine
10
-24.273261648663429
20
27.149094962906478
30
2.4186478325259215e-15
11
-23.946891850019437
21
26.689955502258925
31
2.458745392752912e-15
0
SPLINE
5
174
100
AcDbEntity
8
0
100
AcDbSpline
70
0
71
2
72
6
73
3
74
0
42
0.000000001
43
0.0000000001
44
0.0000000001
40
0
40
0
40
0
40
1
40
1
40
1
10
-23.946891850019441
20
26.689955502258925
30
2.4587453927529116e-15
10
-24.427709259191317
20
26.429119615101722
30
2.3999356207212438e-15
10
-24.799486452692754
20
26.124377727700328
30
2.354491714264346e-15
0
SPLINE
5
175
100
AcDbEntity
8
0
100
AcDbSpline
70
0
71
2
72
6
73
3
74
0
42
0.000000001
43
0.0000000001
44
0.0000000001
40
0
40
0
40
0
40
1
40
1
40
1
10
-26.368603879918886
20
27.219382646547345
30
2.1620233594796198e-15
10
-25.628902010934084
20
26.148106876694168
30
2.2529112088907345e-15
10
-24.648341256304263
20
25.403701867515576
30
2.3732039260690233e-15
0
LINE
5
176
100
AcDbEntity
8
0
100
AcDbLine
10
-24.648341256304263
20
25.403701867515576
30
2.3732039260690233e-15
11
-26.678349424444782
21
25.408355268450077
31
2.1245989723675834e-15
0
LINE
5
177
100
AcDbEntity
8
0
100
AcDbLine
10
-26.678349424444782
20
25.408355268450073
30
2.1245989723675834e-15
11
-26.68355322864673
21
23.138238168281376
31
2.1245989723675834e-15
0
LINE
5
178
100
AcDbEntity
8
0
100
AcDbLine
10
-26.68355322864673
20
23.138238168281383
30
2.1245989723675834e-15
11
-26.246992373931477
21
23.137237436993114
31
2.1780623981693431e-15
0
LINE
5
179
100
AcDbEntity
8
0
100
AcDbLine
10
-26.246992373931477
20
23.137237436993114
30
2.1780623981693431e-15
11
-26.246542044544334
21
23.333689955725077
31
2.1780623981693431e-15
0
LINE
5
180
100
AcDbEntity
8
0
100
AcDbLine
10
-26.246542044544331
20
23.333689955725077
30
2.1780623981693431e-15
11
-24.260189991677585
21
23.329136627987719
31
2.4213210056408752e-15
0
LINE
5
181
100
AcDbEntity
8
0
100
AcDbLine
10
-24.260189991677585
20
23.329136627987719
30
2.4213210056408752e-15
11
-24.260790430177281
21
23.06720023436754
31
2.4213210056408752e-15
0
LINE
5
182
100
AcDbEntity
8
0
100
AcDbLine
10
-24.260790430177277
20
23.06720023436754
30
2.4213210056408752e-15
11
-23.824229575462024
21
23.066199503079275
31
2.4747844314426352e-15
0
LINE
5
183
100
AcDbEntity
8
0
100
AcDbLine
10
-23.824229575462024
20
23.066199503079275
30
2.4747844314426352e-15
11
-23.820176613027218
21
24.834271277599616
31
2.4747844314426352e-15
0
SPLINE
5
184
100
AcDbEntity
8
0
100
AcDbSpline
70
0
71
2
72
6
73
3
74
0
42
0.000000001
43
0.0000000001
44
0.0000000001
40
0
40
0
40
0
40
1
40
1
40
1
10
-23.820176613027222
20
24.834271277599619
30
2.4747844314426352e-15
10
-23.166185804118832
20
24.461693200498598
30
2.5549795883939341e-15
10
-22.620934990606294
20
24.263989767485509
30
2.6218088797704637e-15
0
LINE
5
185
100
AcDbEntity
8
0
100
AcDbLine
10
-22.620934990606294
20
24.263989767485509
30
2.6218088797704637e-15
11
-22.445159762249688
21
24.765634800516075
31
2.6431942555657654e-15
0
SPLINE
5
186
100
AcDbEntity
8
0
100
AcDbSpline
70
0
71
2
72
6
73
3
74
0
42
0.000000001
43
0.0000000001
44
0.0000000001
40
0
40
0
40
0
40
1
40
1
40
1
10
-22.445159762249688
20
24.765634800516079
30
2.643194255565765e-15
10
-23.47042747454573
20
25.051750970710462
30
2.5175551830332387e-15
10
-24.429110283268155
20
25.817934299291387
30
2.3999356207212438e-15
0
SPLINE
5
187
100
AcDbEntity
8
0
100
AcDbSpline
70
0
71
2
72
6
73
3
74
0
42
0.000000001
43
0.0000000001
44
0.0000000001
40
0
40
0
40
0
40
1
40
1
40
1
10
-24.429110283268155
20
25.817934299291387
30
2.3999356207212438e-15
10
-24.232157398550484
20
26.035764546273093
30
2.4239941787558293e-15
10
-23.707483728393704
20
26.383812292758257
30
2.4881502970174048e-15
0
SPLINE
5
188
100
AcDbEntity
8
0
100
AcDbSpline
70
0
71
2
72
6
73
3
74
0
42
0.000000001
43
0.0000000001
44
0.0000000001
40
0
40
0
40
0
40
1
40
1
40
1
10
-23.707483728393704
20
26.383812292758257
30
2.4881502970174048e-15
10
-23.271873493862536
20
25.968078764220831
30
2.5416137319434941e-15
10
-22.748650884381174
20
25.683113137258772
30
2.6057698502050697e-15
0
LINE
5
189
100
AcDbEntity
8
0
100
AcDbLine
10
-22.748650884381174
20
25.683113137258772
30
2.6057698502050697e-15
11
-22.464085698535751
21
26.031711584009081
31
2.6405210824508113e-15
0
SPLINE
5
190
100
AcDbEntity
8
0
100
AcDbSpline
70
0
71
2
72
6
73
3
74
0
42
0.000000001
43
0.0000000001
44
0.0000000001
40
0
40
0
40
0
40
1
40
1
40
1
10
-22.464085698535747
20
26.031711584009081
30
2.6405210824508113e-15
10
-23.663227173937077
20
26.645648911203729
30
2.4934966432473126e-15
10
-24.140391913462725
20
27.978260337471788
30
2.4346868712156452e-15
0
LINE
5
191
100
AcDbEntity
8
0
100
AcDbLine
10
-24.140391913462725
20
27.978260337471788
30
2.4346868712156452e-15
11
-24.620859066444606
21
27.870220853772775
31
2.3758770991839778e-15
0
SPLINE
5
192
100
AcDbEntity
8
0
100
AcDbSpline
70
0
71
2
72
6
73
3
74
0
42
0.000000001
43
0.0000000001
44
0.0000000001
40
0
40
0
40
0
40
1
40
1
40
1
10
-24.620859066444606
20
27.870220853772775
30
2.3758770991839778e-15
10
-24.708371442703271
20
27.783109067641966
30
2.3651844067241619e-15
10
-24.555625075843647
20
27.760930753815082
30
2.3838966185288393e-15
0
LINE
5
193
100
AcDbEntity
8
0
100
AcDbLine
10
-24.555625075843647
20
27.760930753815082
30
2.3838966185288393e-15
11
-24.468763472705692
21
27.564278089371989
31
2.394589274491336e-15
0
LINE
5
194
100
AcDbEntity
8
0
100
AcDbLine
10
-24.468763472705692
20
27.564278089371989
30
2.394589274491336e-15
11
-25.931242440309646
21
27.567630539426794
31
2.2154867852813794e-15
0
LINE
5
195
100
AcDbEntity
8
0
100
AcDbLine
10
-25.931242440309653
20
27.567630539426791
30
2.2154867852813794e-15
11
-25.974698409189134
21
27.655042843171472
31
2.2101404390514717e-15
0
LINE
5
196
100
AcDbEntity
8
0
100
AcDbLine
10
-25.974698409189134
20
27.655042843171476
30
2.2101404390514717e-15
11
-26.433837870519845
21
27.328672746505042
31
2.1540038401347579e-15
0
SPLINE
5
197
100
AcDbEntity
8
0
100
AcDbSpline
70
0
71
2
72
6
73
3
74
0
42
0.000000001
43
0.0000000001
44
0.0000000001
40
0
40
0
40
0
40
1
40
1
40
1
10
-26.433837870519845
20
27.328672746505042
30
2.1540038401347579e-15
10
-26.521350246778507
20
27.24156096037423
30
2.143311147674942e-15
10
-26.368603879918886
20
27.219382646547345
30
2.1620233594796198e-15
0
LINE
5
198
100
AcDbEntity
8
0
100
AcDbLine
10
-26.242739265102383
20
24.992621442060994
30
2.1780623981693431e-15
11
-24.256387212235637
21
24.988068114323635
31
2.4213210056408752e-15
0
LINE
5
199
100
AcDbEntity
8
0
100
AcDbLine
10
-24.256387212235634
20
24.988068114323639
30
2.4213210056408752e-15
11
-24.259239296304727
21
23.743869723088533
31
2.4213210056408752e-15
0
LINE
5
200
100
AcDbEntity
8
0
100
AcDbLine
10
-24.259239296304727
20
23.74386972308853
30
2.4213210056408752e-15
11
-26.245591349171473
21
23.748423050825885
31
2.1780623981693431e-15
0
LINE
5
201
100
AcDbEntity
8
0
100
AcDbLine
10
-26.245591349171473
20
23.748423050825885
30
2.1780623981693431e-15
11
-26.242739265102379
21
24.992621442060994
31
2.1780623981693431e-15
0
LINE
5
202
100
AcDbEntity
8
0
100
AcDbLine
10
-29.317942333969388
20
26.112907241185603
30
1.8011451349501154e-15
11
-28.684928960522171
21
26.111456180510192
31
1.8786671187864601e-15
0
LINE
5
203
100
AcDbEntity
8
0
100
AcDbLine
10
-28.684928960522171
20
26.111456180510189
30
1.8786671187864601e-15
11
-28.687580899563297
21
24.954569423777741
31
1.8786671187864601e-15
0
LINE
5
204
100
AcDbEntity
8
0
100
AcDbLine
10
-28.687580899563297
20
24.954569423777741
30
1.8786671187864601e-15
11
-28.251019746825602
21
24.953568691806311
31
1.9321305810855385e-15
0
LINE
5
205
100
AcDbEntity
8
0
100
AcDbLine
10
-28.251019746825602
20
24.953568691806311
30
1.9321305810855385e-15
11
-28.24741711309478
21
26.525188245617134
31
1.9321305810855385e-15
0
LINE
5
206
100
AcDbEntity
8
0
100
AcDbLine
10
-28.24741711309478
20
26.525188245617134
30
1.9321305810855385e-15
11
-29.316991639279692
21
26.527640038263968
31
1.8011451349501154e-15
0
LINE
5
207
100
AcDbEntity
8
0
100
AcDbLine
10
-29.316991639279692
20
26.527640038263968
30
1.8011451349501154e-15
11
-29.315990907991424
21
26.964200892979221
31
1.8011451349501154e-15
0
LINE
5
208
100
AcDbEntity
8
0
100
AcDbLine
10
-29.315990907991424
20
26.964200892979221
30
1.8011451349501154e-15
11
-28.006308045823221
21
26.961198698431261
31
1.961535448852713e-15
0
LINE
5
209
100
AcDbEntity
8
0
100
AcDbLine
10
-28.006308045823218
20
26.961198698431261
30
1.961535448852713e-15
11
-28.005357351133519
21
27.375931495509626
31
1.961535448852713e-15
0
LINE
5
210
100
AcDbEntity
8
0
100
AcDbLine
10
-28.005357351133519
20
27.375931495509633
30
1.961535448852713e-15
11
-29.315040213301721
21
27.378933690057593
31
1.801145134950115e-15
0
LINE
5
211
100
AcDbEntity
8
0
100
AcDbLine
10
-29.315040213301728
20
27.378933690057593
30
1.8011451349501154e-15
11
-29.313489079429171
21
28.055603178778583
31
1.8011451349501154e-15
0
LINE
5
212
100
AcDbEntity
8
0
100
AcDbLine
10
-29.313489079429171
20
28.055603178778583
30
1.8011451349501154e-15
11
-29.72822187650754
21
28.056553873468278
31
1.7503548822633094e-15
0
SPLINE
5
213
100
AcDbEntity
8
0
100
AcDbSpline
70
0
71
2
72
6
73
3
74
0
42
0.000000001
43
0.0000000001
44
0.0000000001
40
0
40
0
40
0
40
1
40
1
40
1
10
-29.72822187650754
20
28.056553873468278
30
1.750354882263309e-15
10
-29.902896374201191
20
28.035126108619963
30
1.7289694973436776e-15
10
-29.750349855713413
20
27.925635563562381
30
1.7476817456456741e-15
0
LINE
5
214
100
AcDbEntity
8
0
100
AcDbLine
10
-29.750349855713413
20
27.925635563562381
30
1.7476817456456741e-15
11
-29.751600769994539
21
27.3799344206627
31
1.7476817456456741e-15
0
LINE
5
215
100
AcDbEntity
8
0
100
AcDbLine
10
-29.751600769994539
20
27.3799344206627
30
1.7476817456456741e-15
11
-31.039455872548295
21
27.382886579295253
31
1.5899645683607114e-15
0
LINE
5
216
100
AcDbEntity
8
0
100
AcDbLine
10
-31.039455872548295
20
27.382886579295253
30
1.589964568360711e-15
11
-31.040406567237994
21
26.968153782216888
31
1.589964568360711e-15
0
LINE
5
217
100
AcDbEntity
8
0
100
AcDbLine
10
-31.040406567237994
20
26.968153782216881
30
1.589964568360711e-15
11
-29.752551464684235
21
26.965201623584328
31
1.7476817456456737e-15
0
LINE
5
218
100
AcDbEntity
8
0
100
AcDbLine
10
-29.752551464684235
20
26.965201623584335
30
1.7476817456456741e-15
11
-29.753552195972503
21
26.528640768869082
31
1.7476817456456741e-15
0
LINE
5
219
100
AcDbEntity
8
0
100
AcDbLine
10
-29.753552195972503
20
26.528640768869082
30
1.7476817456456741e-15
11
-30.823126722157411
21
26.531092561515916
31
1.6166962995102506e-15
0
LINE
5
220
100
AcDbEntity
8
0
100
AcDbLine
10
-30.823126722157419
20
26.531092561515916
30
1.6166962995102504e-15
11
-30.825978806909667
21
25.286893872258368
31
1.6166962995102504e-15
0
SPLINE
5
221
100
AcDbEntity
8
0
100
AcDbSpline
70
0
71
2
72
6
73
3
74
0
42
0.000000001
43
0.0000000001
44
0.0000000001
40
0
40
0
40
0
40
1
40
1
40
1
10
-30.825978806909667
20
25.286893872258368
30
1.6166962995102504e-15
10
-30.826779391803647
20
24.937645248090654
30
1.6166962995102504e-15
10
-30.477530469613491
20
24.936844662513508
30
1.6594670693495132e-15
0
LINE
5
222
100
AcDbEntity
8
0
100
AcDbLine
10
-30.477530469613491
20
24.936844662513508
30
1.6594670693495132e-15
11
-30.215594374015758
21
24.936244224696971
31
1.6915450737343229e-15
0
LINE
5
223
100
AcDbEntity
8
0
100
AcDbLine
10
-30.215594374015758
20
24.936244224696971
30
1.6915450737343227e-15
11
-30.149159208392966
21
25.350826911296469
31
1.6995646295765031e-15
0
LINE
5
224
100
AcDbEntity
8
0
100
AcDbLine
10
-30.149159208392966
20
25.350826911296469
30
1.6995646295765033e-15
11
-30.301955313828721
21
25.351177166803311
31
1.6808524542691447e-15
0
SPLINE
5
225
100
AcDbEntity
8
0
100
AcDbSpline
70
0
71
2
72
6
73
3
74
0
42
0.000000001
43
0.0000000001
44
0.0000000001
40
0
40
0
40
0
40
1
40
1
40
1
10
-30.301955313828721
20
25.351177166803307
30
1.6808524542691447e-15
10
-30.389268140421137
20
25.351377314563912
30
1.6701596888146915e-15
10
-30.389067994026853
20
25.438689545111451
30
1.6701596888146915e-15
0
LINE
5
226
100
AcDbEntity
8
0
100
AcDbLine
10
-30.389067994026853
20
25.438689545111451
30
1.6701596888146915e-15
11
-30.3875168601543
21
26.115359033832437
31
1.6701596888146915e-15
0
LINE
5
227
100
AcDbEntity
8
0
100
AcDbLine
10
-30.3875168601543
20
26.115359033832437
30
1.6701596888146915e-15
11
-29.754502890662199
21
26.113907971790709
31
1.7476817456456741e-15
0
LINE
5
228
100
AcDbEntity
8
0
100
AcDbLine
10
-29.754502890662202
20
26.113907971790709
30
1.7476817456456741e-15
11
-29.756954683309043
21
25.044333445605798
31
1.7476817456456741e-15
0
SPLINE
5
229
100
AcDbEntity
8
0
100
AcDbSpline
70
0
71
2
72
6
73
3
74
0
42
0.000000001
43
0.0000000001
44
0.0000000001
40
0
40
0
40
0
40
1
40
1
40
1
10
-29.75695468330904
20
25.044333445605798
30
1.7476817456456741e-15
10
-30.347212599573613
20
24.652779693642582
30
1.6755061080392367e-15
10
-31.00340472011354
20
24.064923532059957
30
1.5953109875852566e-15
0
LINE
5
230
100
AcDbEntity
8
0
100
AcDbLine
10
-31.00340472011354
20
24.064923532059957
30
1.5953109875852566e-15
11
-30.698963350326022
21
23.562177993420367
31
1.6327353381999743e-15
0
SPLINE
5
231
100
AcDbEntity
8
0
100
AcDbSpline
70
0
71
2
72
6
73
3
74
0
42
0.000000001
43
0.0000000001
44
0.0000000001
40
0
40
0
40
0
40
1
40
1
40
1
10
-30.698963350326022
20
23.562177993420367
30
1.6327353381999739e-15
10
-30.15181114675093
20
24.193940452586457
30
1.6995646295765033e-15
10
-29.758155560308435
20
24.520460658365444
30
1.7476817456456741e-15
0
LINE
5
232
100
AcDbEntity
8
0
100
AcDbLine
10
-29.758155560308435
20
24.520460658365444
30
1.7476817456456741e-15
11
-29.761508011729557
21
23.057981094716602
31
1.7476817456456741e-15
0
LINE
5
233
100
AcDbEntity
8
0
100
AcDbLine
10
-29.761508011729561
20
23.05798109471661
30
1.7476817456456741e-15
11
-29.324947455036746
21
23.056980364111503
31
1.8011451349501154e-15
0
LINE
5
234
100
AcDbEntity
8
0
100
AcDbLine
10
-29.324947455036746
20
23.056980364111496
30
1.8011451349501154e-15
11
-29.321494930418481
21
24.563116043034103
31
1.8011451349501154e-15
0
SPLINE
5
235
100
AcDbEntity
8
0
100
AcDbSpline
70
0
71
2
72
6
73
3
74
0
42
0.000000001
43
0.0000000001
44
0.0000000001
40
0
40
0
40
0
40
1
40
1
40
1
10
-29.321494930418481
20
24.563116043034103
30
1.8011451349501154e-15
10
-28.995574865799906
20
23.907523764265832
30
1.8412427681717425e-15
10
-28.167410222522868
20
23.338093174349876
30
1.9428232735453544e-15
0
LINE
5
236
100
AcDbEntity
8
0
100
AcDbLine
10
-28.167410222522868
20
23.338093174349876
30
1.9428232735453544e-15
11
-27.882645039294374
21
23.774003851989303
31
1.9775744875424367e-15
0
SPLINE
5
237
100
AcDbEntity
8
0
100
AcDbSpline
70
0
71
2
72
6
73
3
74
0
42
0.000000001
43
0.0000000001
44
0.0000000001
40
0
40
0
40
0
40
1
40
1
40
1
10
-27.882645039294374
20
23.774003851989303
30
1.9775744875424367e-15
10
-28.863506310854913
20
24.387440814052187
30
1.8572817338668287e-15
10
-29.319643577637656
20
25.370753579553956
30
1.8011451349501154e-15
0
LINE
5
238
100
AcDbEntity
8
0
100
AcDbLine
10
-29.319643577637656
20
25.370753579553956
30
1.8011451349501154e-15
11
-29.317942333969388
21
26.112907241185596
31
1.8011451349501154e-15
0
SPLINE
5
239
100
AcDbEntity
8
0
100
AcDbSpline
70
0
71
2
72
6
73
3
74
0
42
0.000000001
43
0.0000000001
44
0.0000000001
40
0
40
0
40
0
40
1
40
1
40
1
10
-32.161593023770571
20
23.500046271930831
30
1.4536327759953798e-15
10
-32.248904062228348
20
23.500246415592482
30
1.442940229524839e-15
10
-32.248703915834064
20
23.587558646140021
30
1.442940229524839e-15
0
LINE
5
240
100
AcDbEntity
8
0
100
AcDbLine
10
-32.248703915834064
20
23.587558646140021
30
1.442940229524839e-15
11
-32.238696601585055
21
27.953167789337442
31
1.442940229524839e-15
0
LINE
5
241
100
AcDbEntity
8
0
100
AcDbLine
10
-32.238696601585055
20
27.953167789337442
30
1.442940229524839e-15
11
-32.653429398663427
21
27.954118484027141
31
1.3921499768380332e-15
0
SPLINE
5
242
100
AcDbEntity
8
0
100
AcDbSpline
70
0
71
2
72
6
73
3
74
0
42
0.000000001
43
0.0000000001
44
0.0000000001
40
0
40
0
40
0
40
1
40
1
40
1
10
-32.653429398663427
20
27.954118484027141
30
1.3921499768380332e-15
10
-32.828103896357071
20
27.932690719178829
30
1.3707645919184018e-15
10
-32.675557973914181
20
27.82320017548756
30
1.3894767672257606e-15
0
LINE
5
243
100
AcDbEntity
8
0
100
AcDbLine
10
-32.675557973914181
20
27.82320017548756
30
1.3894767672257606e-15
11
-32.685615324761763
21
23.435762974653255
31
1.3894767672257606e-15
0
SPLINE
5
244
100
AcDbEntity
8
0
100
AcDbSpline
70
0
71
2
72
6
73
3
74
0
42
0.000000001
43
0.0000000001
44
0.0000000001
40
0
40
0
40
0
40
1
40
1
40
1
10
-32.685615324761756
20
23.435762974653255
30
1.3894767672257606e-15
10
-32.686415909655736
20
23.086514350485537
30
1.3894767672257606e-15
10
-32.337168179555349
20
23.085713767641032
30
1.4322473910757483e-15
0
LINE
5
245
100
AcDbEntity
8
0
100
AcDbLine
10
-32.337168179555349
20
23.085713767641032
30
1.4322473910757483e-15
11
-31.878778671158329
21
23.084662998387877
31
1.4883840629870995e-15
0
LINE
5
246
100
AcDbEntity
8
0
100
AcDbLine
10
-31.878778671158329
20
23.084662998387877
30
1.4883840629870995e-15
11
-31.812344101580415
21
23.499245686353692
31
1.4964035458346424e-15
0
LINE
5
247
100
AcDbEntity
8
0
100
AcDbLine
10
-31.812344101580415
20
23.499245686353692
30
1.4964035458346426e-15
11
-32.161593023770571
21
23.500046271930835
31
1.4536327759953798e-15
0
LINE
5
248
100
AcDbEntity
8
0
100
AcDbLine
10
-31.3523033861137
20
24.218520521095289
30
1.5525402177459938e-15
11
-31.344897973624089
21
27.449071263219587
31
1.5525402177459938e-15
0
LINE
5
249
100
AcDbEntity
8
0
100
AcDbLine
10
-31.344897973624089
20
27.449071263219587
30
1.5525402177459938e-15
11
-31.759630770702458
21
27.450021957909282
31
1.501749965059188e-15
0
SPLINE
5
250
100
AcDbEntity
8
0
100
AcDbSpline
70
0
71
2
72
6
73
3
74
0
42
0.000000001
43
0.0000000001
44
0.0000000001
40
0
40
0
40
0
40
1
40
1
40
1
10
-31.759630770702458
20
27.450021957909282
30
1.501749965059188e-15
10
-31.934305268396109
20
27.42859419306097
30
1.4803645801395566e-15
10
-31.781759345953212
20
27.319103649369705
30
1.4990767554469152e-15
0
LINE
5
251
100
AcDbEntity
8
0
100
AcDbLine
10
-31.781759345953212
20
27.319103649369705
30
1.4990767554469152e-15
11
-31.788864538851392
21
24.219521253066713
31
1.4990767554469152e-15
0
LINE
5
252
100
AcDbEntity
8
0
100
AcDbLine
10
-31.788864538851396
20
24.219521253066716
30
1.4990767554469152e-15
11
-31.3523033861137
21
24.218520521095289
31
1.5525402177459938e-15
0
SPLINE
5
253
100
AcDbEntity
8
0
100
AcDbSpline
70
0
71
2
72
6
73
3
74
0
42
0.000000001
43
0.0000000001
44
0.0000000001
40
0
40
0
40
0
40
1
40
1
40
1
10
-41.941358662313029
20
23.173213734970094
30
2.5605180445312194e-16
10
-40.258347472087678
20
24.15162321456695
30
4.6188602481261765e-16
10
-39.686964561443268
20
25.831081805610584
30
5.3138859879605725e-16
0
SPLINE
5
254
100
AcDbEntity
8
0
100
AcDbSpline
70
0
71
2
72
6
73
3
74
0
42
0.000000001
43
0.0000000001
44
0.0000000001
40
0
40
0
40
0
40
1
40
1
40
1
10
-39.686964561443268
20
25.831081805610584
30
5.3138859879605725e-16
10
-39.102160631690339
20
23.843378467243124
30
6.0356423640249442e-16
10
-37.466709006105887
20
23.11930012177131
30
8.040520375374451e-16
0
LINE
5
255
100
AcDbEntity
8
0
100
AcDbLine
10
-37.466709006105887
20
23.11930012177131
30
8.040520375374451e-16
11
-37.181843153635377
21
23.59886691331819
31
8.3880332452916485e-16
0
SPLINE
5
256
100
AcDbEntity
8
0
100
AcDbSpline
70
0
71
2
72
6
73
3
74
0
42
0.000000001
43
0.0000000001
44
0.0000000001
40
0
40
0
40
0
40
1
40
1
40
1
10
-37.18184315363537
20
23.59886691331819
30
8.3880332452916476e-16
10
-38.882779846197806
20
24.323095370635194
30
6.3029589455739633e-16
10
-39.292759169144524
20
26.397710348739174
30
5.7950564187059048e-16
0
LINE
5
257
100
AcDbEntity
8
0
100
AcDbLine
10
-39.292759169144524
20
26.397710348739174
30
5.7950564187059048e-16
11
-37.371891289188433
21
26.393307130797531
31
8.1474472999726082e-16
0
LINE
5
258
100
AcDbEntity
8
0
100
AcDbLine
10
-37.371891289188433
20
26.393307130797538
30
8.1474472999726082e-16
11
-37.370790484703022
21
26.873524100786561
31
8.1474472999726082e-16
0
LINE
5
259
100
AcDbEntity
8
0
100
AcDbLine
10
-37.370790484703022
20
26.873524100786561
30
8.1474472999726082e-16
11
-39.335315075977768
21
26.878027393291664
31
5.7415922264604516e-16
0
LINE
5
260
100
AcDbEntity
8
0
100
AcDbLine
10
-39.335315075977768
20
26.878027393291664
30
5.7415922264604516e-16
11
-39.332663137619804
21
28.034913852001676
31
5.7415922264604516e-16
0
LINE
5
261
100
AcDbEntity
8
0
100
AcDbLine
10
-39.332663137619804
20
28.034913852001672
30
5.7415922264604516e-16
11
-39.812879809586384
21
28.036014655803921
31
5.1534948711169631e-16
0
SPLINE
5
262
100
AcDbEntity
8
0
100
AcDbSpline
70
0
71
2
72
6
73
3
74
0
42
0.000000001
43
0.0000000001
44
0.0000000001
40
0
40
0
40
0
40
1
40
1
40
1
10
-39.812879809586391
20
28.036014655803925
30
5.1534948711169621e-16
10
-39.987554307280035
20
28.014586890955609
30
4.9396410219206479e-16
10
-39.835007192747376
20
27.90509634453171
30
5.1267642348869854e-16
0
LINE
5
263
100
AcDbEntity
8
0
100
AcDbLine
10
-39.835007192747376
20
27.90509634453171
30
5.1267642348869854e-16
11
-39.83735891151391
21
26.87917823164301
31
5.1267642348869854e-16
0
LINE
5
264
100
AcDbEntity
8
0
100
AcDbLine
10
-39.83735891151391
20
26.87917823164301
30
5.1267642348869854e-16
11
-42.085649742180358
21
26.884332003345332
31
2.3733948315648829e-16
0
LINE
5
265
100
AcDbEntity
8
0
100
AcDbLine
10
-42.085649742180365
20
26.884332003345332
30
2.3733948315648819e-16
11
-42.086750546665783
21
26.404115033356309
31
2.3733948315648819e-16
0
LINE
5
266
100
AcDbEntity
8
0
100
AcDbLine
10
-42.086750546665776
20
26.404115033356309
30
2.3733948315648819e-16
11
-39.94760030220619
21
26.39921144533
31
4.9931052141661011e-16
0
SPLINE
5
267
100
AcDbEntity
8
0
100
AcDbSpline
70
0
71
2
72
6
73
3
74
0
42
0.000000001
43
0.0000000001
44
0.0000000001
40
0
40
0
40
0
40
1
40
1
40
1
10
-39.94760030220619
20
26.39921144533
30
4.9931052141661031e-16
10
-40.475526647926223
20
24.632340549175371
30
4.3515436665771604e-16
10
-42.202043246901596
20
23.719515612342434
30
2.2397387306294964e-16
0
LINE
5
268
100
AcDbEntity
8
0
100
AcDbLine
10
-42.202043246901596
20
23.719515612342434
30
2.2397387306294964e-16
11
-41.941358662313029
21
23.173213734970091
31
2.5605180445312184e-16
0
SPLINE
5
269
100
AcDbEntity
8
0
100
AcDbSpline
70
0
71
2
72
6
73
3
74
0
42
0.000000001
43
0.0000000001
44
0.0000000001
40
0
40
0
40
0
40
1
40
1
40
1
10
-39.558898933017666
20
24.564754840491037
30
5.4742756449114335e-16
10
-40.018037797620337
20
24.238385040480729
30
4.9129103856906711e-16
10
-40.477428037988773
20
23.802874656996188
30
4.3515436665771604e-16
0
LINE
5
270
100
AcDbEntity
8
0
100
AcDbLine
10
-40.477428037988773
20
23.802874656996188
30
4.3515436665771604e-16
11
-40.107302646918754
21
23.387291239791583
31
4.8059820011997656e-16
0
SPLINE
5
271
100
AcDbEntity
8
0
100
AcDbSpline
70
0
71
2
72
6
73
3
74
0
42
0.000000001
43
0.0000000001
44
0.0000000001
40
0
40
0
40
0
40
1
40
1
40
1
10
-40.107302646918761
20
23.387291239791583
30
4.8059820011997656e-16
10
-39.735324710294996
20
23.779345654396636
30
5.2604217957151192e-16
10
-39.232429061176532
20
24.149271495117258
30
5.8752512471813348e-16
0
LINE
5
272
100
AcDbEntity
8
0
100
AcDbLine
10
-39.232429061176532
20
24.149271495117258
30
5.8752512471813348e-16
11
-39.558898933017666
21
24.564754840491037
31
5.4742756449114325e-16
0
SPLINE
5
273
100
AcDbEntity
8
0
100
AcDbSpline
70
0
71
2
72
6
73
3
74
0
42
0.000000001
43
0.0000000001
44
0.0000000001
40
0
40
0
40
0
40
1
40
1
40
1
10
-44.731244655938212
20
24.969518544301621
30
-8.6114062282430675e-17
10
-45.278396263468423
20
24.337756083769211
30
-1.5294328066432262e-16
10
-45.563612371445778
20
23.70539318678658
30
-1.8769456765604227e-16
0
LINE
5
274
100
AcDbEntity
8
0
100
AcDbLine
10
-45.563612371445778
20
23.70539318678658
30
-1.8769456765604227e-16
11
-45.171307177119822
21
23.442555835003361
31
-1.395773785922342e-16
0
SPLINE
5
275
100
AcDbEntity
8
0
100
AcDbSpline
70
0
71
2
72
6
73
3
74
0
42
0.000000001
43
0.0000000001
44
0.0000000001
40
0
40
0
40
0
40
1
40
1
40
1
10
-45.171307177119822
20
23.442555835003365
30
-1.395773785922339e-16
10
-45.083493388496819
20
23.660636262245291
30
-1.2888454014314335e-16
10
-44.930198109165111
20
23.878566585839934
30
-1.1017251082505977e-16
0
LINE
5
276
100
AcDbEntity
8
0
100
AcDbLine
10
-44.930198109165111
20
23.878566585839934
30
-1.1017251082505977e-16
11
-43.05388640721219
21
23.48135840226519
31
1.1972030406634015e-16
0
SPLINE
5
277
100
AcDbEntity
8
0
100
AcDbSpline
70
0
71
2
72
6
73
3
74
0
42
0.000000001
43
0.0000000001
44
0.0000000001
40
0
40
0
40
0
40
1
40
1
40
1
10
-43.05388640721219
20
23.48135840226519
30
1.1972030406634037e-16
10
-43.032409499149466
20
23.328512262280341
30
1.2239336768933804e-16
10
-42.94489593011788
20
23.415624343700962
30
1.3308620613842859e-16
0
LINE
5
278
100
AcDbEntity
8
0
100
AcDbLine
10
-42.94489593011788
20
23.415624343700962
30
1.3308620613842859e-16
11
-42.812727302658899
21
23.939197210738644
31
1.4912517183351469e-16
0
LINE
5
279
100
AcDbEntity
8
0
100
AcDbLine
10
-42.812727302658899
20
23.939197210738644
30
1.4912517183351499e-16
11
-43.249187190792846
21
23.983853757228765
31
9.5661855523711403e-17
0
LINE
5
280
100
AcDbEntity
8
0
100
AcDbLine
10
-43.249187190792846
20
23.983853757228765
30
9.5661855523711267e-17
11
-43.24153159394406
21
27.323545383582371
31
9.5661855523711267e-17
0
LINE
5
281
100
AcDbEntity
8
0
100
AcDbLine
10
-43.24153159394406
20
27.323545383582367
30
9.5661855523711267e-17
11
-44.027342860961681
21
27.32534670386357
31
-5.7252260390483997e-19
0
LINE
5
282
100
AcDbEntity
8
0
100
AcDbLine
10
-44.027342860961667
20
27.32534670386357
30
-5.7252260390497863e-19
11
-44.025691654575134
21
28.045672009835883
31
-5.7252260390497863e-19
0
LINE
5
283
100
AcDbEntity
8
0
100
AcDbLine
10
-44.025691654575134
20
28.045672009835883
30
-5.7252260390497863e-19
11
-44.440424451653506
21
28.046622704525582
31
-5.136277529071079e-17
0
SPLINE
5
284
100
AcDbEntity
8
0
100
AcDbSpline
70
0
71
2
72
6
73
3
74
0
42
0.000000001
43
0.0000000001
44
0.0000000001
40
0
40
0
40
0
40
1
40
1
40
1
10
-44.440424451653499
20
28.046622704525582
30
-5.1362775290710531e-17
10
-44.615098948663992
20
28.025195237699712
30
-7.2748160210341955e-17
10
-44.462551834131332
20
27.91570469127581
30
-5.4035838913708701e-17
0
LINE
5
285
100
AcDbEntity
8
0
100
AcDbLine
10
-44.462551834131332
20
27.91570469127581
30
-5.4035838913708701e-17
11
-44.463902821609608
21
27.326347433102359
31
-5.4035838913708701e-17
0
LINE
5
286
100
AcDbEntity
8
0
100
AcDbLine
10
-44.463902821609608
20
27.326347433102363
30
-5.4035838913708701e-17
11
-45.271541252196783
21
27.328198787932664
31
-1.5294328066432257e-16
0
LINE
5
287
100
AcDbEntity
8
0
100
AcDbLine
10
-45.271541252196776
20
27.328198787932664
30
-1.5294328066432262e-16
11
-45.2764448368073
21
25.189050033585278
31
-1.5294328066432262e-16
0
LINE
5
288
100
AcDbEntity
8
0
100
AcDbLine
10
-45.2764448368073
20
25.189050033585278
30
-1.5294328066432262e-16
11
-43.617513648493819
21
25.185247254826493
31
5.0217730082900636e-17
0
LINE
5
289
100
AcDbEntity
8
0
100
AcDbLine
10
-43.617513648493826
20
25.185247254826493
30
5.0217730082901067e-17
11
-43.620115550253225
21
24.050188853753369
31
5.0217730082901067e-17
0
LINE
5
290
100
AcDbEntity
8
0
100
AcDbLine
10
-43.620115550253217
20
24.050188853753369
30
5.0217730082901067e-17
11
-44.732945899606484
21
24.227364882669985
31
-8.6114062282430292e-17
0
SPLINE
5
291
100
AcDbEntity
8
0
100
AcDbSpline
70
0
71
2
72
6
73
3
74
0
42
0.000000001
43
0.0000000001
44
0.0000000001
40
0
40
0
40
0
40
1
40
1
40
1
10
-44.732945899606484
20
24.227364882669985
30
-8.6114062282430675e-17
10
-44.710916205463107
20
24.314627073203159
30
-8.344070668088283e-17
10
-44.382496099733771
20
24.750437382355631
30
-4.3343292443167827e-17
0
LINE
5
292
100
AcDbEntity
8
0
100
AcDbLine
10
-44.382496099733771
20
24.750437382355631
30
-4.3343292443167827e-17
11
-44.731244655938212
21
24.969518544301621
31
-8.6114062282430601e-17
0
SPLINE
5
293
100
AcDbEntity
8
0
100
AcDbSpline
70
0
71
2
72
6
73
3
74
0
42
0.000000001
43
0.0000000001
44
0.0000000001
40
0
40
0
40
0
40
1
40
1
40
1
10
-47.329732719304985
20
24.560740099037449
30
-4.042214804753537e-16
10
-47.328631914819574
20
25.040957069026469
30
-4.042214804753537e-16
10
-46.606453169226199
20
25.846943692400117
30
-3.1600658519528065e-16
0
LINE
5
294
100
AcDbEntity
8
0
100
AcDbLine
10
-46.606453169226199
20
25.846943692400117
30
-3.1600658519528065e-16
11
-47.039713099914266
21
27.288595635093692
31
-3.69470193483634e-16
0
LINE
5
295
100
AcDbEntity
8
0
100
AcDbLine
10
-47.039713099914266
20
27.288595635093692
30
-3.6947019348363405e-16
11
-46.166590794438875
21
27.286594171150838
31
-2.6254326888547712e-16
0
LINE
5
296
100
AcDbEntity
8
0
100
AcDbLine
10
-46.166590794438882
20
27.286594171150842
30
-2.6254326888547693e-16
11
-46.176347927061343
21
23.03012472009296
31
-2.6254326888547693e-16
0
LINE
5
297
100
AcDbEntity
8
0
100
AcDbLine
10
-46.176347927061343
20
23.03012472009296
30
-2.6254326888547693e-16
11
-45.739787966413409
21
23.029123990854167
31
-2.0907995257567333e-16
0
LINE
5
298
100
AcDbEntity
8
0
100
AcDbLine
10
-45.739787966413409
20
23.029123990854167
30
-2.090799525756737e-16
11
-45.729080139101242
21
27.700326238990417
31
-2.090799525756737e-16
0
LINE
5
299
100
AcDbEntity
8
0
100
AcDbLine
10
-45.729080139101242
20
27.700326238990417
30
-2.090799525756737e-16
11
-47.257043577638299
21
27.703828799524093
31
-3.9620199762781089e-16
0
LINE
5
300
100
AcDbEntity
8
0
100
AcDbLine
10
-47.257043577638299
20
27.703828799524093
30
-3.962019976278105e-16
11
-47.344204506300358
21
27.769513116096398
31
-4.0689454409835132e-16
0
LINE
5
301
100
AcDbEntity
8
0
100
AcDbLine
10
-47.344204506300358
20
27.769513116096398
30
-4.0689454409835137e-16
11
-47.628620028700567
21
27.486399141303927
31
-4.4164583109007107e-16
0
SPLINE
5
302
100
AcDbEntity
8
0
100
AcDbSpline
70
0
71
2
72
6
73
3
74
0
42
0.000000001
43
0.0000000001
44
0.0000000001
40
0
40
0
40
0
40
1
40
1
40
1
10
-47.628620028700567
20
27.486399141303927
30
-4.4164583109007102e-16
10
-47.716131213552629
20
27.399287054418036
30
-4.523383775606119e-16
10
-47.563386336805209
20
27.377108744006943
30
-4.3362634824252832e-16
0
LINE
5
303
100
AcDbEntity
8
0
100
AcDbLine
10
-47.563386336805209
20
27.377108744006943
30
-4.3362634824252832e-16
11
-47.021035856508853
21
25.913378560000471
31
-3.6679683788208664e-16
0
SPLINE
5
304
100
AcDbEntity
8
0
100
AcDbSpline
70
0
71
2
72
6
73
3
74
0
42
0.000000001
43
0.0000000001
44
0.0000000001
40
0
40
0
40
0
40
1
40
1
40
1
10
-47.021035856508853
20
25.913378560000471
30
-3.6679683788208669e-16
10
-47.764841619277512
20
25.194754201723455
30
-4.5768479678515742e-16
10
-47.766292679952933
20
24.561740828276243
30
-4.5768479678515742e-16
0
SPLINE
5
305
100
AcDbEntity
8
0
100
AcDbSpline
70
0
71
2
72
6
73
3
74
0
42
0.000000001
43
0.0000000001
44
0.0000000001
40
0
40
0
40
0
40
1
40
1
40
1
10
-47.766292679952933
20
24.561740828276243
30
-4.5768479678515742e-16
10
-47.768344179811194
20
23.666790763186405
30
-4.5768479678515742e-16
10
-47.113503046749528
20
23.665289666595584
30
-3.7748967633117724e-16
0
LINE
5
306
100
AcDbEntity
8
0
100
AcDbLine
10
-47.113503046749528
20
23.665289666595584
30
-3.7748967633117724e-16
11
-46.720597413240725
21
23.664389006454982
31
-3.2937248726736917e-16
0
LINE
5
307
100
AcDbEntity
8
0
100
AcDbLine
10
-46.720597413240732
20
23.664389006454982
30
-3.2937248726736887e-16
11
-46.61050613234417
21
24.078871619857338
31
-3.1600658519528055e-16
0
LINE
5
308
100
AcDbEntity
8
0
100
AcDbLine
10
-46.610506132344163
20
24.078871619857338
30
-3.1600658519528065e-16
11
-46.937927890964758
21
24.079622170885386
31
-3.5610429141154562e-16
0
SPLINE
5
309
100
AcDbEntity
8
0
100
AcDbSpline
70
0
71
2
72
6
73
3
74
0
42
0.000000001
43
0.0000000001
44
0.0000000001
40
0
40
0
40
0
40
1
40
1
40
1
10
-46.937927890964758
20
24.079622170885383
30
-3.5610429141154582e-16
10
-47.330833524473562
20
24.080522831025984
30
-4.042214804753537e-16
10
-47.329732719304985
20
24.560740099037449
30
-4.042214804753537e-16
0
LINE
5
310
100
AcDbEntity
8
0
100
AcDbLine
10
-43.615512185234131
20
26.058369262279442
30
5.0217730082901067e-17
11
-43.616713063599846
21
25.534495878994207
31
5.0217730082901067e-17
0
LINE
5
311
100
AcDbEntity
8
0
100
AcDbLine
10
-43.616713063599839
20
25.534495878994207
30
5.0217730082901067e-17
11
-44.904568166153602
21
25.53744803762676
31
-1.0749944720206167e-16
0
LINE
5
312
100
AcDbEntity
8
0
100
AcDbLine
10
-44.904568166153602
20
25.537448037626756
30
-1.0749944720206161e-16
11
-44.903367287787887
21
26.061321420911987
31
-1.0749944720206161e-16
0
LINE
5
313
100
AcDbEntity
8
0
100
AcDbLine
10
-44.903367287787887
20
26.061321420911987
30
-1.0749944720206161e-16
11
-43.615512185234124
21
26.058369262279438
31
5.0217730082901129e-17
0
LINE
5
314
100
AcDbEntity
8
0
100
AcDbLine
10
-43.613410649460448
20
26.975147086983718
30
5.0217730082901067e-17
11
-43.614711600340144
21
26.407617886447156
31
5.0217730082901067e-17
0
LINE
5
315
100
AcDbEntity
8
0
100
AcDbLine
10
-43.614711600340144
20
26.407617886447156
30
5.0217730082901067e-17
11
-44.902566702893907
21
26.410570045079709
31
-1.0749944720206167e-16
0
LINE
5
316
100
AcDbEntity
8
0
100
AcDbLine
10
-44.902566702893907
20
26.410570045079705
30
-1.0749944720206161e-16
11
-44.901265752014211
21
26.978099245616267
31
-1.0749944720206161e-16
0
LINE
5
317
100
AcDbEntity
8
0
100
AcDbLine
10
-44.901265752014211
20
26.978099245616267
30
-1.0749944720206161e-16
11
-43.613410649460448
21
26.975147086983714
31
5.0217730082901129e-17
0
ENDSEC
0
SECTION
2
OBJECTS
0
DICTIONARY
5
C
100
AcDbDictionary
3
ACAD_GROUP
350
D
3
ACAD_MLINESTYLE
350
17
0
DICTIONARY
5
D
100
AcDbDictionary
0
DICTIONARY
5
1A
330
C
100
AcDbDictionary
0
DICTIONARY
5
17
100
AcDbDictionary
0
ENDSEC
0
EOF
