0
SECTION
2
HEADER
9
$INSUNITS
70
4
9
$ACADVER
1
AC1014
9
$HANDSEED
5
FFFF
0
ENDSEC
0
SECTION
2
TABLES
0
TABLE
2
VPORT
5
8
100
AcDbSymbolTable
0
ENDTAB
0
TABLE
2
LTYPE
5
5
100
AcDbSymbolTable
0
LTYPE
5
14
100
AcDbSymbolTableRecord
100
AcDbLinetypeTableRecord
2
BYBLOCK
70
0
0
LTYPE
5
15
100
AcDbSymbolTableRecord
100
AcDbLinetypeTableRecord
2
BYLAYER
70
0
0
ENDTAB
0
TABLE
2
LAYER
5
2
100
AcDbSymbolTable
70
2
0
LAYER
5
50
100
AcDbSymbolTableRecord
100
AcDbLayerTableRecord
2
0
70
0
6
CONTINUOUS
0
ENDTAB
0
TABLE
2
STYLE
5
3
100
AcDbSymbolTable
70
1
0
STYLE
5
11
100
AcDbSymbolTableRecord
100
AcDbTextStyleTableRecord
2
STANDARD
70
0
0
ENDTAB
0
TABLE
2
VIEW
5
6
100
AcDbSymbolTable
70
0
0
ENDTAB
0
TABLE
2
UCS
5
7
100
AcDbSymbolTable
70
0
0
ENDTAB
0
TABLE
2
APPID
5
9
100
AcDbSymbolTable
70
2
0
APPID
5
12
100
AcDbSymbolTableRecord
100
AcDbRegAppTableRecord
2
ACAD
70
0
0
ENDTAB
0
TABLE
2
DIMSTYLE
5
A
100
AcDbSymbolTable
70
1
0
ENDTAB
0
TABLE
2
BLOCK_RECORD
5
1
100
AcDbSymbolTable
70
1
0
BLOCK_RECORD
5
1F
100
AcDbSymbolTableRecord
100
AcDbBlockTableRecord
2
*MODEL_SPACE
0
BLOCK_RECORD
5
1B
100
AcDbSymbolTableRecord
100
AcDbBlockTableRecord
2
*PAPER_SPACE
0
ENDTAB
0
ENDSEC
0
SECTION
2
BLOCKS
0
BLOCK
5
20
100
AcDbEntity
100
AcDbBlockBegin
2
*MODEL_SPACE
0
ENDBLK
5
21
100
AcDbEntity
100
AcDbBlockEnd
0
BLOCK
5
1C
100
AcDbEntity
100
AcDbBlockBegin
2
*PAPER_SPACE
0
ENDBLK
5
1D
100
AcDbEntity
100
AcDbBlockEnd
0
ENDSEC
0
SECTION
2
ENTITIES
0
LWPOLYLINE
5
100
100
AcDbEntity
8
0
100
AcDbPolyline
90
4
70
1
43
0.0
10
-59.003311421385085
20
17.700566830891013
10
-21.770167268984043
20
17.700566830890942
10
-21.770167268984004
20
30.174615717860469
10
-59.003311421385085
20
30.17461571786054
0
LWPOLYLINE
5
101
100
AcDbEntity
8
0
100
AcDbPolyline
90
4
70
1
43
0.0
10
-73.229833029039227
20
31.208283602278083
10
-21.770167268983627
20
31.208283602278158
10
-21.770167268984004
20
34.853877061131747
10
-73.229833029039227
20
34.853877061131747
0
ARC
5
102
100
AcDbEntity
8
0
100
AcDbCircle
10
-105.49999764189124
20
53.499998804181814
30
0
40
0.4999999888241291
210
0
220
-0
230
1
100
AcDbArc
50
90
51
180
0
SPLINE
5
103
100
AcDbEntity
8
0
100
AcDbSpline
70
0
71
2
72
6
73
3
74
0
42
0.000000001
43
0.0000000001
44
0.0000000001
40
0
40
0
40
0
40
1
40
1
40
1
10
-24.542336382143191
20
27.991805709334624
30
1.9403797373089417e-15
10
-25.0225546138212
20
28.450195826026214
30
1.8815699652772743e-15
10
-25.459116615526369
20
29.017726517649905
30
1.8281065394755143e-15
0
LINE
5
104
100
AcDbEntity
8
0
100
AcDbLine
10
-25.459116615526369
20
29.017726517649905
30
1.8281065394755143e-15
11
-24.018461920492342
21
29.017726517649901
31
2.0045358555705172e-15
0
LINE
5
105
100
AcDbEntity
8
0
100
AcDbLine
10
-24.018461920492342
20
29.017726517649901
30
2.0045358555705172e-15
11
-23.691040493719271
21
28.559336400958312
31
2.0446334157975072e-15
0
SPLINE
5
106
100
AcDbEntity
8
0
100
AcDbSpline
70
0
71
2
72
6
73
3
74
0
42
0.000000001
43
0.0000000001
44
0.0000000001
40
0
40
0
40
0
40
1
40
1
40
1
10
-23.691040493719271
20
28.559336400958312
30
2.0446334157975072e-15
10
-24.17125872539728
20
28.297399021121276
30
1.9858236437658395e-15
10
-24.542336382143191
20
27.991805709334624
30
1.9403797373089417e-15
0
SPLINE
5
107
100
AcDbEntity
8
0
100
AcDbSpline
70
0
71
2
72
6
73
3
74
0
42
0.000000001
43
0.0000000001
44
0.0000000001
40
0
40
0
40
0
40
1
40
1
40
1
10
-26.113959767095736
20
29.083210862609164
30
1.7479113825242156e-15
10
-25.371804155580691
20
28.013633526297824
30
1.8387992319353302e-15
10
-24.389539577238256
20
27.271478212805999
30
1.959091949113619e-15
0
LINE
5
108
100
AcDbEntity
8
0
100
AcDbLine
10
-24.389539577238256
20
27.271478212805999
30
1.959091949113619e-15
11
-26.419553078882391
21
27.271478212806002
31
1.7104869954121793e-15
0
LINE
5
109
100
AcDbEntity
8
0
100
AcDbLine
10
-26.419553078882391
20
27.271478212806002
30
1.7104869954121793e-15
11
-26.419553078882402
21
25.001355148288027
31
1.7104869954121793e-15
0
LINE
5
110
100
AcDbEntity
8
0
100
AcDbLine
10
-26.419553078882402
20
25.001355148288027
30
1.7104869954121793e-15
11
-25.982991077177232
21
25.001355148288027
31
1.7639504212139389e-15
0
LINE
5
111
100
AcDbEntity
8
0
100
AcDbLine
10
-25.982991077177232
20
25.001355148288027
30
1.7639504212139389e-15
11
-25.982991077177232
21
25.197808183165805
31
1.7639504212139389e-15
0
LINE
5
112
100
AcDbEntity
8
0
100
AcDbLine
10
-25.982991077177225
20
25.197808183165805
30
1.7639504212139389e-15
11
-23.99663380550593
21
25.197808183165801
31
2.0072090286854713e-15
0
LINE
5
113
100
AcDbEntity
8
0
100
AcDbLine
10
-23.99663380550593
20
25.197808183165801
30
2.0072090286854713e-15
11
-23.99663380550593
21
24.935871101351989
31
2.0072090286854713e-15
0
LINE
5
114
100
AcDbEntity
8
0
100
AcDbLine
10
-23.996633805505937
20
24.935871101351989
30
2.0072090286854713e-15
11
-23.560071803800767
21
24.935871101351989
31
2.0606724544872309e-15
0
LINE
5
115
100
AcDbEntity
8
0
100
AcDbLine
10
-23.560071803800767
20
24.935871101351989
30
2.0606724544872309e-15
11
-23.56007180380076
21
26.703947521182311
31
2.0606724544872309e-15
0
SPLINE
5
116
100
AcDbEntity
8
0
100
AcDbSpline
70
0
71
2
72
6
73
3
74
0
42
0.000000001
43
0.0000000001
44
0.0000000001
40
0
40
0
40
0
40
1
40
1
40
1
10
-23.560071803800756
20
26.703947521182311
30
2.0606724544872309e-15
10
-22.905228652231393
20
26.332869566413173
30
2.1408676114385297e-15
10
-22.359526075594125
20
26.136416531535396
30
2.2076969028150593e-15
0
LINE
5
117
100
AcDbEntity
8
0
100
AcDbLine
10
-22.359526075594125
20
26.136416531535396
30
2.2076969028150593e-15
11
-22.184901230208574
21
26.638463176223048
31
2.2290822786103607e-15
0
SPLINE
5
118
100
AcDbEntity
8
0
100
AcDbSpline
70
0
71
2
72
6
73
3
74
0
42
0.000000001
43
0.0000000001
44
0.0000000001
40
0
40
0
40
0
40
1
40
1
40
1
10
-22.184901230208574
20
26.638463176223048
30
2.2290822786103607e-15
10
-23.210822113029653
20
26.922228373023284
30
2.1034432060778344e-15
10
-24.171258725397283
20
27.686212099524749
30
1.9858236437658395e-15
0
SPLINE
5
119
100
AcDbEntity
8
0
100
AcDbSpline
70
0
71
2
72
6
73
3
74
0
42
0.000000001
43
0.0000000001
44
0.0000000001
40
0
40
0
40
0
40
1
40
1
40
1
10
-24.171258725397283
20
27.686212099524749
30
1.9858236437658395e-15
10
-23.974805690519506
20
27.904493249388945
30
2.009882201800425e-15
10
-23.450931228868654
20
28.253742791148436
30
2.0740383200620005e-15
0
SPLINE
5
120
100
AcDbEntity
8
0
100
AcDbSpline
70
0
71
2
72
6
73
3
74
0
42
0.000000001
43
0.0000000001
44
0.0000000001
40
0
40
0
40
0
40
1
40
1
40
1
10
-23.450931228868654
20
28.253742791148436
30
2.0740383200620005e-15
10
-23.014369152657682
20
27.839008904429686
30
2.1275017549880902e-15
10
-22.490494691006834
20
27.555243409606227
30
2.1916578732496654e-15
0
LINE
5
121
100
AcDbEntity
8
0
100
AcDbLine
10
-22.490494691006834
20
27.555243409606227
30
2.1916578732496654e-15
11
-22.20672934519499
21
27.904493249388942
31
2.226409105495407e-15
0
SPLINE
5
122
100
AcDbEntity
8
0
100
AcDbSpline
70
0
71
2
72
6
73
3
74
0
42
0.000000001
43
0.0000000001
44
0.0000000001
40
0
40
0
40
0
40
1
40
1
40
1
10
-22.20672934519499
20
27.904493249388942
30
2.226409105495407e-15
10
-23.407274998895815
20
28.515680170985473
30
2.0793846662919083e-15
10
-23.887493230573821
20
29.847194291087401
30
2.0205748942602409e-15
0
LINE
5
123
100
AcDbEntity
8
0
100
AcDbLine
10
-23.887493230573821
20
29.847194291087401
30
2.0205748942602409e-15
11
-24.36771146225183
21
29.738053716155303
31
1.9617651222285731e-15
0
SPLINE
5
124
100
AcDbEntity
8
0
100
AcDbSpline
70
0
71
2
72
6
73
3
74
0
42
0.000000001
43
0.0000000001
44
0.0000000001
40
0
40
0
40
0
40
1
40
1
40
1
10
-24.36771146225183
20
29.738053716155303
30
1.9617651222285731e-15
10
-24.455023922197508
20
29.650741554232848
30
1.9510724297687576e-15
10
-24.302227117292571
20
29.628913439246428
30
1.9697846415734349e-15
0
LINE
5
125
100
AcDbEntity
8
0
100
AcDbLine
10
-24.302227117292571
20
29.628913439246428
30
1.9697846415734349e-15
11
-24.214914955370116
21
29.432460404368651
31
1.9804772975359317e-15
0
LINE
5
126
100
AcDbEntity
8
0
100
AcDbLine
10
-24.214914955370119
20
29.432460404368651
30
1.9804772975359317e-15
11
-25.677397765390566
21
29.432460404368655
31
1.8013748083259751e-15
0
LINE
5
127
100
AcDbEntity
8
0
100
AcDbLine
10
-25.677397765390563
20
29.432460404368655
30
1.8013748083259755e-15
11
-25.721053995363402
21
29.519772864314334
31
1.7960284620960677e-15
0
LINE
5
128
100
AcDbEntity
8
0
100
AcDbLine
10
-25.721053995363402
20
29.519772864314334
30
1.7960284620960677e-15
11
-26.179444112054991
21
29.192351139518038
31
1.7398918631793538e-15
0
SPLINE
5
129
100
AcDbEntity
8
0
100
AcDbSpline
70
0
71
2
72
6
73
3
74
0
42
0.000000001
43
0.0000000001
44
0.0000000001
40
0
40
0
40
0
40
1
40
1
40
1
10
-26.179444112054995
20
29.192351139518038
30
1.7398918631793536e-15
10
-26.266756572000673
20
29.105038977595584
30
1.7291991707195379e-15
10
-26.113959767095736
20
29.083210862609164
30
1.7479113825242156e-15
0
LINE
5
130
100
AcDbEntity
8
0
100
AcDbLine
10
-25.982991077177221
20
26.856744028064028
30
1.7639504212139389e-15
11
-23.996633805505926
21
26.856744028064025
31
2.0072090286854713e-15
0
LINE
5
131
100
AcDbEntity
8
0
100
AcDbLine
10
-23.996633805505926
20
26.856744028064025
30
2.0072090286854713e-15
11
-23.99663380550593
21
25.612542367907775
31
2.0072090286854713e-15
0
LINE
5
132
100
AcDbEntity
8
0
100
AcDbLine
10
-23.99663380550593
20
25.612542367907775
30
2.0072090286854713e-15
11
-25.982991077177225
21
25.612542367907778
31
1.7639504212139389e-15
0
LINE
5
133
100
AcDbEntity
8
0
100
AcDbLine
10
-25.982991077177225
20
25.612542367907778
30
1.7639504212139389e-15
11
-25.982991077177221
21
26.856744028064028
31
1.7639504212139389e-15
0
LINE
5
134
100
AcDbEntity
8
0
100
AcDbLine
10
-29.060754098169497
20
27.969977594348215
30
1.387033157994711e-15
11
-28.42773906158655
21
27.969977594348215
31
1.464555141831056e-15
0
LINE
5
135
100
AcDbEntity
8
0
100
AcDbLine
10
-28.42773906158655
20
27.969977594348215
30
1.4645551418310558e-15
11
-28.427739061586554
21
26.813087798091196
31
1.4645551418310558e-15
0
LINE
5
136
100
AcDbEntity
8
0
100
AcDbLine
10
-28.427739061586554
20
26.813087798091196
30
1.4645551418310558e-15
11
-27.99117676185816
21
26.813087798091196
31
1.5180186041301343e-15
0
LINE
5
137
100
AcDbEntity
8
0
100
AcDbLine
10
-27.99117676185816
20
26.813087798091196
30
1.5180186041301343e-15
11
-27.991176761858156
21
28.384711481066965
31
1.5180186041301343e-15
0
LINE
5
138
100
AcDbEntity
8
0
100
AcDbLine
10
-27.991176761858156
20
28.384711481066965
30
1.5180186041301343e-15
11
-29.060754098169497
21
28.384711481066965
31
1.387033157994711e-15
0
LINE
5
139
100
AcDbEntity
8
0
100
AcDbLine
10
-29.060754098169497
20
28.384711481066965
30
1.387033157994711e-15
11
-29.060754098169497
21
28.821273482772135
31
1.387033157994711e-15
0
LINE
5
140
100
AcDbEntity
8
0
100
AcDbLine
10
-29.060754098169497
20
28.821273482772135
30
1.387033157994711e-15
11
-27.751067795030764
21
28.821273482772128
31
1.5474234718973091e-15
0
LINE
5
141
100
AcDbEntity
8
0
100
AcDbLine
10
-27.751067795030764
20
28.821273482772135
30
1.5474234718973087e-15
11
-27.751067795030764
21
29.236007369490885
31
1.5474234718973087e-15
0
LINE
5
142
100
AcDbEntity
8
0
100
AcDbLine
10
-27.751067795030764
20
29.236007369490885
30
1.5474234718973087e-15
11
-29.060754098169497
21
29.236007369490888
31
1.3870331579947107e-15
0
LINE
5
143
100
AcDbEntity
8
0
100
AcDbLine
10
-29.060754098169497
20
29.236007369490885
30
1.387033157994711e-15
11
-29.060754098169497
21
29.912678636046671
31
1.387033157994711e-15
0
LINE
5
144
100
AcDbEntity
8
0
100
AcDbLine
10
-29.060754098169493
20
29.912678636046671
30
1.387033157994711e-15
11
-29.475487984888243
21
29.912678636046671
31
1.3362429053079051e-15
0
SPLINE
5
145
100
AcDbEntity
8
0
100
AcDbSpline
70
0
71
2
72
6
73
3
74
0
42
0.000000001
43
0.0000000001
44
0.0000000001
40
0
40
0
40
0
40
1
40
1
40
1
10
-29.475487984888243
20
29.912678636046671
30
1.3362429053079049e-15
10
-29.650112904779601
20
29.890850521060251
30
1.3148575203882735e-15
10
-29.497315801851439
20
29.781709946128153
30
1.3335697686902698e-15
0
LINE
5
146
100
AcDbEntity
8
0
100
AcDbLine
10
-29.497315801851439
20
29.781709946128153
30
1.3335697686902698e-15
11
-29.497315801851439
21
29.236007369490885
31
1.3335697686902698e-15
0
LINE
5
147
100
AcDbEntity
8
0
100
AcDbLine
10
-29.497315801851443
20
29.236007369490885
30
1.3335697686902698e-15
11
-30.78517428802698
21
29.236007369490888
31
1.1758525914053071e-15
0
LINE
5
148
100
AcDbEntity
8
0
100
AcDbLine
10
-30.78517428802698
20
29.236007369490888
30
1.1758525914053069e-15
11
-30.78517428802698
21
28.821273482772138
31
1.1758525914053069e-15
0
LINE
5
149
100
AcDbEntity
8
0
100
AcDbLine
10
-30.78517428802698
20
28.821273482772138
30
1.1758525914053069e-15
11
-29.497315801851443
21
28.821273482772135
31
1.3335697686902696e-15
0
LINE
5
150
100
AcDbEntity
8
0
100
AcDbLine
10
-29.497315801851443
20
28.821273482772135
30
1.3335697686902698e-15
11
-29.497315801851443
21
28.384711481066965
31
1.3335697686902698e-15
0
LINE
5
151
100
AcDbEntity
8
0
100
AcDbLine
10
-29.497315801851443
20
28.384711481066965
30
1.3335697686902698e-15
11
-30.566893138162783
21
28.384711481066965
31
1.2025843225548465e-15
0
LINE
5
152
100
AcDbEntity
8
0
100
AcDbLine
10
-30.566893138162783
20
28.384711481066969
30
1.2025843225548463e-15
11
-30.566893138162786
21
27.140509522887495
31
1.2025843225548463e-15
0
SPLINE
5
153
100
AcDbEntity
8
0
100
AcDbSpline
70
0
71
2
72
6
73
3
74
0
42
0.000000001
43
0.0000000001
44
0.0000000001
40
0
40
0
40
0
40
1
40
1
40
1
10
-30.566893138162786
20
27.140509522887495
30
1.2025843225548463e-15
10
-30.566893138162786
20
26.791259981128004
30
1.2025843225548463e-15
10
-30.217643298380072
20
26.791259981128004
30
1.2453550923941091e-15
0
LINE
5
154
100
AcDbEntity
8
0
100
AcDbLine
10
-30.217643298380072
20
26.791259981128004
30
1.2453550923941091e-15
11
-29.955706514589483
21
26.791259981128004
31
1.2774330967789188e-15
0
LINE
5
155
100
AcDbEntity
8
0
100
AcDbLine
10
-29.955706514589483
20
26.791259981128004
30
1.2774330967789186e-15
11
-29.890221871607
21
27.205993867846754
31
1.2854526526210988e-15
0
LINE
5
156
100
AcDbEntity
8
0
100
AcDbLine
10
-29.890221871607
20
27.205993867846754
30
1.2854526526210992e-15
11
-30.043018378488714
21
27.205993867846754
31
1.2667404773137405e-15
0
SPLINE
5
157
100
AcDbEntity
8
0
100
AcDbSpline
70
0
71
2
72
6
73
3
74
0
42
0.000000001
43
0.0000000001
44
0.0000000001
40
0
40
0
40
0
40
1
40
1
40
1
10
-30.043018378488714
20
27.205993867846754
30
1.2667404773137405e-15
10
-30.130331434480841
20
27.205993867846754
30
1.2560477118592874e-15
10
-30.130331434480841
20
27.293306327792433
30
1.2560477118592874e-15
0
LINE
5
158
100
AcDbEntity
8
0
100
AcDbLine
10
-30.130331434480841
20
27.293306327792433
30
1.2560477118592874e-15
11
-30.130331434480841
21
27.969977594348219
31
1.2560477118592874e-15
0
LINE
5
159
100
AcDbEntity
8
0
100
AcDbLine
10
-30.130331434480837
20
27.969977594348219
30
1.2560477118592874e-15
11
-29.497315801851443
21
27.969977594348219
31
1.3335697686902698e-15
0
LINE
5
160
100
AcDbEntity
8
0
100
AcDbLine
10
-29.497315801851443
20
27.969977594348215
30
1.3335697686902698e-15
11
-29.497315801851446
21
26.900400258036875
31
1.3335697686902698e-15
0
SPLINE
5
161
100
AcDbEntity
8
0
100
AcDbSpline
70
0
71
2
72
6
73
3
74
0
42
0.000000001
43
0.0000000001
44
0.0000000001
40
0
40
0
40
0
40
1
40
1
40
1
10
-29.497315801851446
20
26.900400258036875
30
1.3335697686902698e-15
10
-30.086674608461557
20
26.507494486304548
30
1.2613941310838326e-15
10
-30.7415174620077
20
25.918135679694441
30
1.1811990106298523e-15
0
LINE
5
162
100
AcDbEntity
8
0
100
AcDbLine
10
-30.7415174620077
20
25.918135679694441
30
1.1811990106298523e-15
11
-30.435924448244272
21
25.416089333030012
31
1.2186233612445699e-15
0
SPLINE
5
163
100
AcDbEntity
8
0
100
AcDbSpline
70
0
71
2
72
6
73
3
74
0
42
0.000000001
43
0.0000000001
44
0.0000000001
40
0
40
0
40
0
40
1
40
1
40
1
10
-30.435924448244272
20
25.416089333030012
30
1.2186233612445697e-15
10
-29.890221871607004
20
26.049104369612959
30
1.2854526526210992e-15
10
-29.49731580185145
20
26.37652609440925
30
1.3335697686902698e-15
0
LINE
5
164
100
AcDbEntity
8
0
100
AcDbLine
10
-29.49731580185145
20
26.37652609440925
30
1.3335697686902698e-15
11
-29.497315801851457
21
24.914042688342356
31
1.3335697686902698e-15
0
LINE
5
165
100
AcDbEntity
8
0
100
AcDbLine
10
-29.49731580185145
20
24.914042688342356
30
1.3335697686902698e-15
11
-29.060754098169504
21
24.914042688342356
31
1.387033157994711e-15
0
LINE
5
166
100
AcDbEntity
8
0
100
AcDbLine
10
-29.060754098169504
20
24.914042688342356
30
1.387033157994711e-15
11
-29.0607540981695
21
26.42018232438209
31
1.387033157994711e-15
0
SPLINE
5
167
100
AcDbEntity
8
0
100
AcDbSpline
70
0
71
2
72
6
73
3
74
0
42
0.000000001
43
0.0000000001
44
0.0000000001
40
0
40
0
40
0
40
1
40
1
40
1
10
-29.060754098169504
20
26.42018232438209
30
1.387033157994711e-15
10
-28.733332075349985
20
25.765338874789499
30
1.4271307912163386e-15
10
-27.903864301912485
20
25.197808183165812
30
1.5287112965899501e-15
0
LINE
5
168
100
AcDbEntity
8
0
100
AcDbLine
10
-27.903864301912485
20
25.197808183165812
30
1.5287112965899501e-15
11
-27.620099105112253
21
25.634370482894205
31
1.5634625105870323e-15
0
SPLINE
5
169
100
AcDbEntity
8
0
100
AcDbSpline
70
0
71
2
72
6
73
3
74
0
42
0.000000001
43
0.0000000001
44
0.0000000001
40
0
40
0
40
0
40
1
40
1
40
1
10
-27.620099105112253
20
25.634370482894198
30
1.5634625105870323e-15
10
-28.602363981477914
20
26.245557404490732
30
1.4431697569114244e-15
10
-29.0607540981695
20
27.22782198283317
30
1.387033157994711e-15
0
LINE
5
170
100
AcDbEntity
8
0
100
AcDbLine
10
-29.0607540981695
20
27.22782198283317
30
1.387033157994711e-15
11
-29.060754098169497
21
27.969977594348215
31
1.387033157994711e-15
0
SPLINE
5
171
100
AcDbEntity
8
0
100
AcDbSpline
70
0
71
2
72
6
73
3
74
0
42
0.000000001
43
0.0000000001
44
0.0000000001
40
0
40
0
40
0
40
1
40
1
40
1
10
-31.898407854311166
20
25.350604988070753
30
1.0395207990399756e-15
10
-31.98571912216395
20
25.350604988070753
30
1.0288282525694349e-15
10
-31.98571912216395
20
25.437917448016432
30
1.0288282525694349e-15
0
LINE
5
172
100
AcDbEntity
8
0
100
AcDbLine
10
-31.98571912216395
20
25.437917448016432
30
1.0288282525694349e-15
11
-31.985719122163939
21
29.803538061114576
31
1.0288282525694349e-15
0
LINE
5
173
100
AcDbEntity
8
0
100
AcDbLine
10
-31.985719122163939
20
29.803538061114576
30
1.0288282525694349e-15
11
-32.400453008882685
21
29.803538061114576
31
9.7803799988262891e-16
0
SPLINE
5
174
100
AcDbEntity
8
0
100
AcDbSpline
70
0
71
2
72
6
73
3
74
0
42
0.000000001
43
0.0000000001
44
0.0000000001
40
0
40
0
40
0
40
1
40
1
40
1
10
-32.400453008882685
20
29.80353806111458
30
9.7803799988262891e-16
10
-32.575077928774043
20
29.78170994612816
30
9.5665261496299749e-16
10
-32.422281421892329
20
29.672569371196062
30
9.753647902703565e-16
0
LINE
5
175
100
AcDbEntity
8
0
100
AcDbLine
10
-32.422281421892329
20
29.672569371196062
30
9.753647902703565e-16
11
-32.422281421892343
21
25.285120643111497
31
9.753647902703565e-16
0
SPLINE
5
176
100
AcDbEntity
8
0
100
AcDbSpline
70
0
71
2
72
6
73
3
74
0
42
0.000000001
43
0.0000000001
44
0.0000000001
40
0
40
0
40
0
40
1
40
1
40
1
10
-32.422281421892343
20
25.285120643111497
30
9.753647902703565e-16
10
-32.422281421892343
20
24.935871101352003
30
9.753647902703565e-16
10
-32.073032774202524
20
24.935871101352003
30
1.0181354141203442e-15
0
LINE
5
177
100
AcDbEntity
8
0
100
AcDbLine
10
-32.073032774202524
20
24.935871101352003
30
1.0181354141203442e-15
11
-31.614642061464487
21
24.935871101352003
31
1.0742720860316952e-15
0
LINE
5
178
100
AcDbEntity
8
0
100
AcDbLine
10
-31.614642061464487
20
24.935871101352003
30
1.0742720860316952e-15
11
-31.549158014528452
21
25.350604988070753
31
1.0822915688792383e-15
0
LINE
5
179
100
AcDbEntity
8
0
100
AcDbLine
10
-31.549158014528452
20
25.350604988070753
30
1.0822915688792385e-15
11
-31.898407854311166
21
25.350604988070753
31
1.0395207990399758e-15
0
LINE
5
180
100
AcDbEntity
8
0
100
AcDbLine
10
-31.090767301790414
20
26.070932484599378
30
1.1384282407905895e-15
11
-31.090767301790407
21
29.301491714450147
31
1.1384282407905895e-15
0
LINE
5
181
100
AcDbEntity
8
0
100
AcDbLine
10
-31.090767301790407
20
29.301491714450147
30
1.1384282407905895e-15
11
-31.505501188509157
21
29.301491714450147
31
1.0876379881037837e-15
0
SPLINE
5
182
100
AcDbEntity
8
0
100
AcDbSpline
70
0
71
2
72
6
73
3
74
0
42
0.000000001
43
0.0000000001
44
0.0000000001
40
0
40
0
40
0
40
1
40
1
40
1
10
-31.505501188509157
20
29.301491714450147
30
1.0876379881037837e-15
10
-31.680126108400515
20
29.279663599463728
30
1.0662526031841523e-15
10
-31.527329601518801
20
29.170523024531629
30
1.0849647784915111e-15
0
LINE
5
183
100
AcDbEntity
8
0
100
AcDbLine
10
-31.527329601518801
20
29.170523024531629
30
1.0849647784915111e-15
11
-31.527329601518808
21
26.070932484599378
31
1.0849647784915111e-15
0
LINE
5
184
100
AcDbEntity
8
0
100
AcDbLine
10
-31.527329601518808
20
26.070932484599378
30
1.0849647784915111e-15
11
-31.090767301790414
21
26.070932484599378
31
1.1384282407905895e-15
0
SPLINE
5
185
100
AcDbEntity
8
0
100
AcDbSpline
70
0
71
2
72
6
73
3
74
0
42
0.000000001
43
0.0000000001
44
0.0000000001
40
0
40
0
40
0
40
1
40
1
40
1
10
-41.6773985998556
20
25.001355148288056
30
-1.5806017250228229e-16
10
-39.996634639970956
20
25.983620024653717
30
4.7774047857213421e-17
10
-39.42910305427759
20
27.664383984538361
30
1.1727662184065297e-16
0
SPLINE
5
186
100
AcDbEntity
8
0
100
AcDbSpline
70
0
71
2
72
6
73
3
74
0
42
0.000000001
43
0.0000000001
44
0.0000000001
40
0
40
0
40
0
40
1
40
1
40
1
10
-39.42910305427759
20
27.664383984538361
30
1.1727662184065297e-16
10
-38.83974424766749
20
25.678026414843838
30
1.8945225944709019e-16
10
-37.202637113802133
20
24.957698918315213
30
3.8994006058204087e-16
0
LINE
5
187
100
AcDbEntity
8
0
100
AcDbLine
10
-37.202637113802133
20
24.957698918315213
30
3.8994006058204087e-16
11
-36.918871320955454
21
25.437917448016446
31
4.2469134757376057e-16
0
SPLINE
5
188
100
AcDbEntity
8
0
100
AcDbSpline
70
0
71
2
72
6
73
3
74
0
42
0.000000001
43
0.0000000001
44
0.0000000001
40
0
40
0
40
0
40
1
40
1
40
1
10
-36.918871320955454
20
25.437917448016442
30
4.2469134757376052e-16
10
-38.621463693849741
20
26.158244944545071
30
2.1618391760199205e-16
10
-39.036197580568484
20
28.231914676162045
30
1.6539366491518625e-16
0
LINE
5
189
100
AcDbEntity
8
0
100
AcDbLine
10
-39.036197580568484
20
28.231914676162045
30
1.6539366491518625e-16
11
-37.115324653856447
21
28.231914676162042
31
4.0063275304185659e-16
0
LINE
5
190
100
AcDbEntity
8
0
100
AcDbLine
10
-37.115324653856447
20
28.231914676162045
30
4.0063275304185659e-16
11
-37.115324653856447
21
28.712132907840054
31
4.0063275304185659e-16
0
LINE
5
191
100
AcDbEntity
8
0
100
AcDbLine
10
-37.115324653856447
20
28.712132907840054
30
4.0063275304185659e-16
11
-39.079854406587771
21
28.712132907840058
31
1.6004724569064095e-16
0
LINE
5
192
100
AcDbEntity
8
0
100
AcDbLine
10
-39.079854406587771
20
28.712132907840054
30
1.6004724569064098e-16
11
-39.079854406587764
21
29.869022406073849
31
1.6004724569064098e-16
0
LINE
5
193
100
AcDbEntity
8
0
100
AcDbLine
10
-39.079854406587764
20
29.869022406073849
30
1.6004724569064098e-16
11
-39.560072340242549
21
29.869022406073849
31
1.012375101562921e-16
0
SPLINE
5
194
100
AcDbEntity
8
0
100
AcDbSpline
70
0
71
2
72
6
73
3
74
0
42
0.000000001
43
0.0000000001
44
0.0000000001
40
0
40
0
40
0
40
1
40
1
40
1
10
-39.560072340242549
20
29.869022406073853
30
1.0123751015629198e-16
10
-39.734697260133906
20
29.847194291087433
30
7.9852125236660557e-17
10
-39.581899561159297
20
29.738053716155335
30
9.8564446533294305e-17
0
LINE
5
195
100
AcDbEntity
8
0
100
AcDbLine
10
-39.581899561159297
20
29.738053716155335
30
9.8564446533294305e-17
11
-39.581899561159304
21
28.712132907840058
31
9.8564446533294305e-17
0
LINE
5
196
100
AcDbEntity
8
0
100
AcDbLine
10
-39.581899561159304
20
28.712132907840058
30
9.8564446533294305e-17
11
-41.830196298830202
21
28.712132907840061
31
-1.7677249379891591e-16
0
LINE
5
197
100
AcDbEntity
8
0
100
AcDbLine
10
-41.830196298830202
20
28.712132907840061
30
-1.7677249379891604e-16
11
-41.830196298830202
21
28.231914676162052
31
-1.7677249379891604e-16
0
LINE
5
198
100
AcDbEntity
8
0
100
AcDbLine
10
-41.830196298830202
20
28.231914676162052
30
-1.7677249379891604e-16
11
-39.691040434114626
21
28.231914676162049
31
8.5198544461205857e-17
0
SPLINE
5
199
100
AcDbEntity
8
0
100
AcDbSpline
70
0
71
2
72
6
73
3
74
0
42
0.000000001
43
0.0000000001
44
0.0000000001
40
0
40
0
40
0
40
1
40
1
40
1
10
-39.691040434114626
20
28.231914676162049
30
8.5198544461206079e-17
10
-40.214915193788698
20
26.463838256331726
30
2.1042389702311807e-17
10
-41.939334787599734
20
25.547058022948551
30
-1.9013810389245459e-16
0
LINE
5
200
100
AcDbEntity
8
0
100
AcDbLine
10
-41.939334787599734
20
25.547058022948551
30
-1.9013810389245459e-16
11
-41.677398599855593
21
25.001355148288059
31
-1.5806017250228239e-16
0
SPLINE
5
201
100
AcDbEntity
8
0
100
AcDbSpline
70
0
71
2
72
6
73
3
74
0
42
0.000000001
43
0.0000000001
44
0.0000000001
40
0
40
0
40
0
40
1
40
1
40
1
10
-39.298134960405527
20
26.398353911372467
30
1.3331558753573912e-16
10
-39.756524481050668
20
26.070932484599396
30
7.7179061613662881e-17
10
-40.214915193788705
20
25.634370184871003
30
2.1042389702311807e-17
0
LINE
5
202
100
AcDbEntity
8
0
100
AcDbLine
10
-40.214915193788705
20
25.634370184871003
30
2.1042389702311807e-17
11
-39.843838133089243
21
25.219636298152253
31
6.6486223164572343e-17
0
SPLINE
5
203
100
AcDbEntity
8
0
100
AcDbSpline
70
0
71
2
72
6
73
3
74
0
42
0.000000001
43
0.0000000001
44
0.0000000001
40
0
40
0
40
0
40
1
40
1
40
1
10
-39.843838133089243
20
25.219636298152253
30
6.6486223164572331e-17
10
-39.472759880296884
20
25.612542367907807
30
1.1193020261610769e-16
10
-38.970713533632455
20
25.983620024653714
30
1.734131477627292e-16
0
LINE
5
204
100
AcDbEntity
8
0
100
AcDbLine
10
-38.970713533632455
20
25.983620024653714
30
1.734131477627292e-16
11
-39.298134960405527
21
26.398353911372464
31
1.3331558753573909e-16
0
SPLINE
5
205
100
AcDbEntity
8
0
100
AcDbSpline
70
0
71
2
72
6
73
3
74
0
42
0.000000001
43
0.0000000001
44
0.0000000001
40
0
40
0
40
0
40
1
40
1
40
1
10
-44.471394933931521
20
26.791259981128029
30
-5.0022603923783491e-16
10
-45.017096914522341
20
26.158244944545082
30
-5.6705525761972685e-16
10
-45.300862707369021
20
25.525229907962135
30
-6.018065446114465e-16
0
LINE
5
206
100
AcDbEntity
8
0
100
AcDbLine
10
-45.300862707369021
20
25.525229907962135
30
-6.018065446114465e-16
11
-44.907956041567019
21
25.263292528125099
31
-5.5368935554763843e-16
0
SPLINE
5
207
100
AcDbEntity
8
0
100
AcDbSpline
70
0
71
2
72
6
73
3
74
0
42
0.000000001
43
0.0000000001
44
0.0000000001
40
0
40
0
40
0
40
1
40
1
40
1
10
-44.907956041567026
20
25.263292528125099
30
-5.5368935554763813e-16
10
-44.820642389528444
20
25.481573677989296
30
-5.4299651709854758e-16
10
-44.667847074739626
20
25.699854827853493
30
-5.2428448778046401e-16
0
LINE
5
208
100
AcDbEntity
8
0
100
AcDbLine
10
-44.667847074739626
20
25.699854827853493
30
-5.2428448778046401e-16
11
-42.790629781953982
21
25.306948758097935
31
-2.9439167288906411e-16
0
SPLINE
5
209
100
AcDbEntity
8
0
100
AcDbSpline
70
0
71
2
72
6
73
3
74
0
42
0.000000001
43
0.0000000001
44
0.0000000001
40
0
40
0
40
0
40
1
40
1
40
1
10
-42.790629781953989
20
25.306948758097935
30
-2.9439167288906386e-16
10
-42.768802561037241
20
25.154152251216221
30
-2.9171860926606619e-16
10
-42.681488908998666
20
25.2414647111619
30
-2.8102577081697564e-16
0
LINE
5
210
100
AcDbEntity
8
0
100
AcDbLine
10
-42.681488908998666
20
25.2414647111619
30
-2.8102577081697564e-16
11
-42.550520815126596
21
25.765339172812748
31
-2.6498680512188954e-16
0
LINE
5
211
100
AcDbEntity
8
0
100
AcDbLine
10
-42.550520815126589
20
25.765339172812748
30
-2.6498680512188924e-16
11
-42.987081922762087
21
25.808995104762364
31
-3.1845012143169287e-16
0
LINE
5
212
100
AcDbEntity
8
0
100
AcDbLine
10
-42.987081922762087
20
25.808995104762364
30
-3.1845012143169296e-16
11
-42.98708192276208
21
29.148695505591679
31
-3.1845012143169296e-16
0
LINE
5
213
100
AcDbEntity
8
0
100
AcDbLine
10
-42.987081922762087
20
29.148695505591679
30
-3.1845012143169296e-16
11
-43.772895254366091
21
29.148695505591679
31
-4.1468449955930911e-16
0
LINE
5
214
100
AcDbEntity
8
0
100
AcDbLine
10
-43.772895254366091
20
29.148695505591679
30
-4.1468449955930921e-16
11
-43.772895254366091
21
29.86902270409708
31
-4.1468449955930921e-16
0
LINE
5
215
100
AcDbEntity
8
0
100
AcDbLine
10
-43.772895254366084
20
29.86902270409708
30
-4.1468449955930921e-16
11
-44.187629141084834
21
29.86902270409708
31
-4.6547475224611496e-16
0
SPLINE
5
216
100
AcDbEntity
8
0
100
AcDbSpline
70
0
71
2
72
6
73
3
74
0
42
0.000000001
43
0.0000000001
44
0.0000000001
40
0
40
0
40
0
40
1
40
1
40
1
10
-44.187629141084834
20
29.869022704097084
30
-4.6547475224611476e-16
10
-44.362254060976191
20
29.847194887133888
30
-4.8686013716574619e-16
10
-44.209456362001582
20
29.73805431220179
30
-4.6814781586911293e-16
0
LINE
5
217
100
AcDbEntity
8
0
100
AcDbLine
10
-44.209456362001582
20
29.73805431220179
30
-4.6814781586911293e-16
11
-44.209456362001582
21
29.148695505591682
31
-4.6814781586911293e-16
0
LINE
5
218
100
AcDbEntity
8
0
100
AcDbLine
10
-44.209456362001589
20
29.148695505591682
30
-4.6814781586911293e-16
11
-45.017096914522341
21
29.148695505591682
31
-5.6705525761972685e-16
0
LINE
5
219
100
AcDbEntity
8
0
100
AcDbLine
10
-45.017096914522341
20
29.148695505591682
30
-5.6705525761972685e-16
11
-45.017096914522348
21
27.009541130992226
31
-5.6705525761972685e-16
0
LINE
5
220
100
AcDbEntity
8
0
100
AcDbLine
10
-45.017096914522341
20
27.009541130992226
30
-5.6705525761972685e-16
11
-43.358161367647341
21
27.009541130992222
31
-3.6389424687250361e-16
0
LINE
5
221
100
AcDbEntity
8
0
100
AcDbLine
10
-43.358161367647341
20
27.009541130992222
30
-3.6389424687250316e-16
11
-43.358161367647341
21
25.874479747744846
31
-3.6389424687250316e-16
0
LINE
5
222
100
AcDbEntity
8
0
100
AcDbLine
10
-43.358161367647341
20
25.874479747744846
30
-3.6389424687250316e-16
11
-44.471394933931521
21
26.04910436961298
31
-5.0022603923783451e-16
0
SPLINE
5
223
100
AcDbEntity
8
0
100
AcDbSpline
70
0
71
2
72
6
73
3
74
0
42
0.000000001
43
0.0000000001
44
0.0000000001
40
0
40
0
40
0
40
1
40
1
40
1
10
-44.471394933931521
20
26.049104369612984
30
-5.0022603923783491e-16
10
-44.449565328828982
20
26.136416829558662
30
-4.9755268363628706e-16
10
-44.122145094148806
20
26.572978831263832
30
-4.5745526939857206e-16
0
LINE
5
224
100
AcDbEntity
8
0
100
AcDbLine
10
-44.122145094148806
20
26.572978831263832
30
-4.5745526939857206e-16
11
-44.471394933931521
21
26.791259981128029
31
-5.0022603923783481e-16
0
SPLINE
5
225
100
AcDbEntity
8
0
100
AcDbSpline
70
0
71
2
72
6
73
3
74
0
42
0.000000001
43
0.0000000001
44
0.0000000001
40
0
40
0
40
0
40
1
40
1
40
1
10
-47.068939127199343
20
26.376526094409286
30
-8.1833345743075793e-16
10
-47.068939127199343
20
26.856744326087295
30
-8.1833345743075793e-16
10
-46.348609842531374
20
27.664384282561592
30
-7.3011856215068488e-16
0
LINE
5
226
100
AcDbEntity
8
0
100
AcDbLine
10
-46.348609842531374
20
27.664384282561592
30
-7.3011856215068488e-16
11
-46.785173334352656
21
29.105039275618843
31
-7.8358217043903828e-16
0
LINE
5
227
100
AcDbEntity
8
0
100
AcDbLine
10
-46.785173334352663
20
29.10503927561885
30
-7.8358217043903828e-16
11
-45.912048734895876
21
29.10503927561885
31
-6.7665524584088145e-16
0
LINE
5
228
100
AcDbEntity
8
0
100
AcDbLine
10
-45.912048734895876
20
29.105039275618843
30
-6.7665524584088116e-16
11
-45.91204873489589
21
24.848558641406349
31
-6.7665524584088116e-16
0
LINE
5
229
100
AcDbEntity
8
0
100
AcDbLine
10
-45.912048734895883
20
24.848558641406349
30
-6.7665524584088116e-16
11
-45.475487627260385
21
24.848558641406349
31
-6.2319192953107753e-16
0
LINE
5
230
100
AcDbEntity
8
0
100
AcDbLine
10
-45.475487627260385
20
24.848558641406349
30
-6.2319192953107793e-16
11
-45.475487627260371
21
29.519773162337593
31
-6.2319192953107793e-16
0
LINE
5
231
100
AcDbEntity
8
0
100
AcDbLine
10
-45.475487627260371
20
29.519773162337593
30
-6.2319192953107793e-16
11
-47.003455080263301
21
29.5197731623376
31
-8.1031397458321512e-16
0
LINE
5
232
100
AcDbEntity
8
0
100
AcDbLine
10
-47.003455080263301
20
29.5197731623376
30
-8.1031397458321473e-16
11
-47.090766348116084
21
29.585257507296859
31
-8.210065210537556e-16
0
LINE
5
233
100
AcDbEntity
8
0
100
AcDbLine
10
-47.090766348116084
20
29.585257507296859
30
-8.210065210537556e-16
11
-47.374532140962764
21
29.301492310496627
31
-8.5575780804547535e-16
0
SPLINE
5
234
100
AcDbEntity
8
0
100
AcDbSpline
70
0
71
2
72
6
73
3
74
0
42
0.000000001
43
0.0000000001
44
0.0000000001
40
0
40
0
40
0
40
1
40
1
40
1
10
-47.374532140962771
20
29.301492310496627
30
-8.5575780804547525e-16
10
-47.461843408815554
20
29.214179850550948
30
-8.6645035451601613e-16
10
-47.309048094026735
20
29.192351735564529
30
-8.4773832519793255e-16
0
LINE
5
235
100
AcDbEntity
8
0
100
AcDbLine
10
-47.309048094026735
20
29.192351735564529
30
-8.4773832519793255e-16
11
-46.763343729250131
21
27.729868627520858
31
-7.8090881483749092e-16
0
SPLINE
5
236
100
AcDbEntity
8
0
100
AcDbSpline
70
0
71
2
72
6
73
3
74
0
42
0.000000001
43
0.0000000001
44
0.0000000001
40
0
40
0
40
0
40
1
40
1
40
1
10
-46.763343729250124
20
27.729868627520858
30
-7.8090881483749092e-16
10
-47.505500234834841
20
27.009541130992233
30
-8.7179677374056165e-16
10
-47.505500234834841
20
26.376526094409286
30
-8.7179677374056165e-16
0
SPLINE
5
237
100
AcDbEntity
8
0
100
AcDbSpline
70
0
71
2
72
6
73
3
74
0
42
0.000000001
43
0.0000000001
44
0.0000000001
40
0
40
0
40
0
40
1
40
1
40
1
10
-47.505500234834841
20
26.376526094409286
30
-8.7179677374056165e-16
10
-47.505500234834841
20
25.481573677989303
30
-8.7179677374056165e-16
10
-46.850657381288698
20
25.481573677989303
30
-7.9160165328658147e-16
0
LINE
5
238
100
AcDbEntity
8
0
100
AcDbLine
10
-46.850657381288698
20
25.481573677989303
30
-7.9160165328658147e-16
11
-46.457750715486696
21
25.481573677989303
31
-7.434844642227735e-16
0
LINE
5
239
100
AcDbEntity
8
0
100
AcDbLine
10
-46.457750715486696
20
25.481573677989303
30
-7.4348446422277311e-16
11
-46.348609842531374
21
25.896307564708053
31
-7.3011856215068478e-16
0
LINE
5
240
100
AcDbEntity
8
0
100
AcDbLine
10
-46.348609842531374
20
25.896307564708046
30
-7.3011856215068488e-16
11
-46.676032461397341
21
25.896307564708046
31
-7.7021626836694995e-16
0
SPLINE
5
241
100
AcDbEntity
8
0
100
AcDbSpline
70
0
71
2
72
6
73
3
74
0
42
0.000000001
43
0.0000000001
44
0.0000000001
40
0
40
0
40
0
40
1
40
1
40
1
10
-46.676032461397341
20
25.896307564708053
30
-7.7021626836695005e-16
10
-47.068939127199343
20
25.896307564708053
30
-8.1833345743075793e-16
10
-47.068939127199343
20
26.376526094409286
30
-8.1833345743075793e-16
0
LINE
5
242
100
AcDbEntity
8
0
100
AcDbLine
10
-43.358161367647341
20
27.882665432425785
30
-3.6389424687250316e-16
11
-43.358161367647341
21
27.358790672751713
31
-3.6389424687250316e-16
0
LINE
5
243
100
AcDbEntity
8
0
100
AcDbLine
10
-43.358161367647341
20
27.358790672751713
30
-3.6389424687250316e-16
11
-44.646019853822878
21
27.358790672751716
31
-5.2161142415746593e-16
0
LINE
5
244
100
AcDbEntity
8
0
100
AcDbLine
10
-44.646019853822878
20
27.358790672751716
30
-5.2161142415746584e-16
11
-44.646019853822878
21
27.882665432425789
31
-5.2161142415746584e-16
0
LINE
5
245
100
AcDbEntity
8
0
100
AcDbLine
10
-44.646019853822878
20
27.882665432425789
30
-5.2161142415746584e-16
11
-43.358161367647341
21
27.882665432425785
31
-3.6389424687250311e-16
0
LINE
5
246
100
AcDbEntity
8
0
100
AcDbLine
10
-43.358161367647341
20
28.799445665808964
30
-3.6389424687250316e-16
11
-43.358161367647341
21
28.231914974185276
31
-3.6389424687250316e-16
0
LINE
5
247
100
AcDbEntity
8
0
100
AcDbLine
10
-43.358161367647341
20
28.231914974185276
30
-3.6389424687250316e-16
11
-44.646019853822878
21
28.23191497418528
31
-5.2161142415746593e-16
0
LINE
5
248
100
AcDbEntity
8
0
100
AcDbLine
10
-44.646019853822878
20
28.23191497418528
30
-5.2161142415746584e-16
11
-44.646019853822878
21
28.799445665808967
31
-5.2161142415746584e-16
0
LINE
5
249
100
AcDbEntity
8
0
100
AcDbLine
10
-44.646019853822878
20
28.799445665808967
30
-5.2161142415746584e-16
11
-43.358161367647341
21
28.799445665808964
31
-3.6389424687250311e-16
0
LINE
5
250
100
AcDbEntity
8
0
100
AcDbLine
10
-23.293604768983833
20
33.21325206113174
30
2.9644284621046314e-15
11
-23.262354798786173
21
33.385127120736385
31
2.9682554797022352e-15
0
LINE
5
251
100
AcDbEntity
8
0
100
AcDbLine
10
-23.262354798786173
20
33.385127120736385
30
2.9682554797022352e-15
11
-23.387354828588496
21
33.385127120736385
31
2.9529473910631613e-15
0
SPLINE
5
252
100
AcDbEntity
8
0
100
AcDbSpline
70
0
71
2
72
6
73
3
74
0
42
0.000000001
43
0.0000000001
44
0.0000000001
40
0
40
0
40
0
40
1
40
1
40
1
10
-23.387354828588496
20
33.385127120736385
30
2.9529473910631613e-15
10
-23.496729798786173
20
33.385127120736385
30
2.9395528203472192e-15
10
-23.473292209379224
20
33.56481456113174
30
2.9424230972319167e-15
0
SPLINE
5
253
100
AcDbEntity
8
0
100
AcDbSpline
70
0
71
2
72
6
73
3
74
0
42
0.000000001
43
0.0000000001
44
0.0000000001
40
0
40
0
40
0
40
1
40
1
40
1
10
-23.473292209379224
20
33.56481456113174
30
2.9424230972319167e-15
10
-23.442042239181568
20
33.783564576032902
30
2.9462501148295201e-15
10
-23.277979709379263
20
33.947627031329418
30
2.9663419800277636e-15
0
LINE
5
254
100
AcDbEntity
8
0
100
AcDbLine
10
-23.277979709379263
20
33.947627031329418
30
2.9663419800277636e-15
11
-23.418604798786284
21
34.471064590934063
31
2.9491203734655583e-15
0
LINE
5
255
100
AcDbEntity
8
0
100
AcDbLine
10
-23.418604798786284
20
34.471064590934063
30
2.9491203734655579e-15
11
-23.160792209379316
21
34.471064590934063
31
2.980693309705271e-15
0
LINE
5
256
100
AcDbEntity
8
0
100
AcDbLine
10
-23.160792209379316
20
34.47106459093407
30
2.9806933097052714e-15
11
-23.16079220937916
21
32.955439620736392
31
2.9806933097052714e-15
0
LINE
5
257
100
AcDbEntity
8
0
100
AcDbLine
10
-23.16079220937916
20
32.955439620736392
30
2.9806933097052714e-15
11
-23.004542283884966
21
32.955439620736392
31
2.9998284068176191e-15
0
LINE
5
258
100
AcDbEntity
8
0
100
AcDbLine
10
-23.004542283884966
20
32.955439620736392
30
2.9998284068176187e-15
11
-23.004542283885137
21
34.619502210143359
31
2.9998284068176187e-15
0
LINE
5
259
100
AcDbEntity
8
0
100
AcDbLine
10
-23.00454228388514
20
34.619502210143359
30
2.9998284068176187e-15
11
-23.465479828588624
21
34.619502210143359
31
2.9433798379448226e-15
0
LINE
5
260
100
AcDbEntity
8
0
100
AcDbLine
10
-23.465479828588624
20
34.619502210143352
30
2.9433798379448226e-15
11
-23.48110473918166
21
34.642939650538707
31
2.9414663382703506e-15
0
LINE
5
261
100
AcDbEntity
8
0
100
AcDbLine
10
-23.481104739181657
20
34.642939650538707
30
2.941466338270351e-15
11
-23.621729828588613
21
34.525752150538707
31
2.9242447317081461e-15
0
LINE
5
262
100
AcDbEntity
8
0
100
AcDbLine
10
-23.621729828588613
20
34.525752150538707
30
2.9242447317081453e-15
11
-23.590479709379316
21
34.502314710143352
31
2.9280717675544081e-15
0
LINE
5
263
100
AcDbEntity
8
0
100
AcDbLine
10
-23.590479709379323
20
34.502314710143352
30
2.9280717675544089e-15
11
-23.418604798786234
21
33.978877076032902
31
2.9491203734655583e-15
0
SPLINE
5
264
100
AcDbEntity
8
0
100
AcDbSpline
70
0
71
2
72
6
73
3
74
0
42
0.000000001
43
0.0000000001
44
0.0000000001
40
0
40
0
40
0
40
1
40
1
40
1
10
-23.418604798786234
20
33.978877076032902
30
2.9491203734655579e-15
10
-23.652979798786209
20
33.72106456113174
30
2.9204177141105418e-15
10
-23.645167268983865
20
33.51793968034103
30
2.9213744730721075e-15
0
SPLINE
5
265
100
AcDbEntity
8
0
100
AcDbSpline
70
0
71
2
72
6
73
3
74
0
42
0.000000001
43
0.0000000001
44
0.0000000001
40
0
40
0
40
0
40
1
40
1
40
1
10
-23.645167268983865
20
33.51793968034103
30
2.9213744730721075e-15
10
-23.637354739181511
20
33.21325206113174
30
2.9223312320336732e-15
10
-23.434229709379188
20
33.21325206113174
30
2.9472068737910862e-15
0
LINE
5
266
100
AcDbEntity
8
0
100
AcDbLine
10
-23.434229709379188
20
33.21325206113174
30
2.9472068737910862e-15
11
-23.293604768983833
21
33.21325206113174
31
2.9644284621046322e-15
0
LINE
5
267
100
AcDbEntity
8
0
100
AcDbLine
10
-22.035792276434471
20
33.752314531329425
30
3.1184660663974516e-15
11
-22.777979739181568
21
33.752314531329425
31
3.0275743163353987e-15
0
LINE
5
268
100
AcDbEntity
8
0
100
AcDbLine
10
-22.777979739181568
20
33.752314531329425
30
3.0275743163353991e-15
11
-22.777979739181497
21
33.041377001527103
31
3.0275743163353991e-15
0
LINE
5
269
100
AcDbEntity
8
0
100
AcDbLine
10
-22.777979739181493
20
33.041377001527103
30
3.0275743163353991e-15
11
-22.621729739181493
21
33.041377001527103
31
3.0467094225720765e-15
0
LINE
5
270
100
AcDbEntity
8
0
100
AcDbLine
10
-22.621729739181493
20
33.041377001527103
30
3.0467094225720765e-15
11
-22.621729739181504
21
33.127314531329425
31
3.0467094225720765e-15
0
LINE
5
271
100
AcDbEntity
8
0
100
AcDbLine
10
-22.621729739181504
20
33.127314531329425
30
3.0467094225720765e-15
11
-22.192042276434407
21
33.127314531329425
31
3.0993309601607746e-15
0
LINE
5
272
100
AcDbEntity
8
0
100
AcDbLine
10
-22.192042276434407
20
33.127314531329425
30
3.0993309601607742e-15
11
-22.192042276434393
21
33.002314501527103
31
3.0993309601607742e-15
0
LINE
5
273
100
AcDbEntity
8
0
100
AcDbLine
10
-22.192042276434393
20
33.002314501527103
30
3.0993309601607742e-15
11
-22.035792276434393
21
33.002314501527103
31
3.1184660663974516e-15
0
LINE
5
274
100
AcDbEntity
8
0
100
AcDbLine
10
-22.035792276434393
20
33.002314501527103
30
3.1184660663974516e-15
11
-22.035792276434467
21
33.752314531329425
31
3.1184660663974516e-15
0
LINE
5
275
100
AcDbEntity
8
0
100
AcDbLine
10
-22.192042276434453
20
33.603877061131747
30
3.0993309601607742e-15
11
-22.192042276434417
21
33.275752001527103
31
3.0993309601607742e-15
0
LINE
5
276
100
AcDbEntity
8
0
100
AcDbLine
10
-22.192042276434421
20
33.275752001527103
30
3.0993309601607742e-15
11
-22.621729739181518
21
33.275752001527103
31
3.0467094225720761e-15
0
LINE
5
277
100
AcDbEntity
8
0
100
AcDbLine
10
-22.621729739181518
20
33.275752001527103
30
3.0467094225720765e-15
11
-22.621729739181553
21
33.603877061131747
31
3.0467094225720765e-15
0
LINE
5
278
100
AcDbEntity
8
0
100
AcDbLine
10
-22.62172973918155
20
33.603877061131747
30
3.0467094225720765e-15
11
-22.192042276434453
21
33.603877061131747
31
3.0993309601607746e-15
0
LINE
5
279
100
AcDbEntity
8
0
100
AcDbLine
10
-22.324854798786316
20
34.752314620736392
30
3.0830661171222998e-15
11
-22.496729783885154
21
34.752314620736392
31
3.0620175020868208e-15
0
SPLINE
5
280
100
AcDbEntity
8
0
100
AcDbSpline
70
0
71
2
72
6
73
3
74
0
42
0.000000001
43
0.0000000001
44
0.0000000001
40
0
40
0
40
0
40
1
40
1
40
1
10
-22.496729783885154
20
34.752314620736392
30
3.0620175020868208e-15
10
-22.574854783885151
20
34.736689710143359
30
3.0524499489684821e-15
10
-22.50454223918166
20
34.689814680341037
30
3.0610607522495843e-15
0
LINE
5
281
100
AcDbEntity
8
0
100
AcDbLine
10
-22.50454223918166
20
34.689814680341037
30
3.0610607522495843e-15
11
-22.504542239181646
21
34.517939620736392
31
3.0610607522495843e-15
0
LINE
5
282
100
AcDbEntity
8
0
100
AcDbLine
10
-22.504542239181646
20
34.517939620736392
30
3.0610607522495843e-15
11
-22.871729724280485
21
34.517939620736392
31
3.0160932544182587e-15
0
LINE
5
283
100
AcDbEntity
8
0
100
AcDbLine
10
-22.871729724280485
20
34.517939620736392
30
3.0160932544182587e-15
11
-22.87172972428047
21
34.369502076032909
31
3.0160932544182587e-15
0
LINE
5
284
100
AcDbEntity
8
0
100
AcDbLine
10
-22.87172972428047
20
34.369502076032909
30
3.0160932544182587e-15
11
-22.762354754082793
21
34.369502076032909
31
3.0294878251342009e-15
0
LINE
5
285
100
AcDbEntity
8
0
100
AcDbLine
10
-22.762354754082793
20
34.369502076032909
30
3.0294878251342009e-15
11
-22.65297978388508
21
34.04137709093407
31
3.0428823958501434e-15
0
LINE
5
286
100
AcDbEntity
8
0
100
AcDbLine
10
-22.65297978388508
20
34.04137709093407
30
3.0428823958501434e-15
11
-22.949854724280435
21
34.04137709093407
31
3.0065257012999201e-15
0
LINE
5
287
100
AcDbEntity
8
0
100
AcDbLine
10
-22.949854724280435
20
34.04137709093407
30
3.0065257012999201e-15
11
-22.949854724280421
21
33.892939546230586
31
3.0065257012999201e-15
0
LINE
5
288
100
AcDbEntity
8
0
100
AcDbLine
10
-22.949854724280421
20
33.892939546230586
30
3.0065257012999201e-15
11
-21.879542267121259
21
33.892939546230586
31
3.1376011737746704e-15
0
LINE
5
289
100
AcDbEntity
8
0
100
AcDbLine
10
-21.879542267121259
20
33.892939546230586
30
3.1376011737746704e-15
11
-21.879542267121273
21
34.04137709093407
31
3.1376011737746704e-15
0
LINE
5
290
100
AcDbEntity
8
0
100
AcDbLine
10
-21.879542267121273
20
34.04137709093407
30
3.1376011737746704e-15
11
-22.176417254082757
21
34.04137709093407
31
3.1012444735217412e-15
0
LINE
5
291
100
AcDbEntity
8
0
100
AcDbLine
10
-22.176417254082757
20
34.04137709093407
30
3.1012444735217412e-15
11
-22.082667268983954
21
34.369502076032909
31
3.1127255354388816e-15
0
LINE
5
292
100
AcDbEntity
8
0
100
AcDbLine
10
-22.082667268983954
20
34.369502076032909
30
3.1127255354388816e-15
11
-21.981104772709244
21
34.369502076032909
31
3.1251633540365053e-15
0
LINE
5
293
100
AcDbEntity
8
0
100
AcDbLine
10
-21.981104772709244
20
34.369502076032909
30
3.1251633540365053e-15
11
-21.981104772709259
21
34.517939620736392
31
3.1251633540365053e-15
0
LINE
5
294
100
AcDbEntity
8
0
100
AcDbLine
10
-21.981104772709259
20
34.517939620736392
30
3.1251633540365053e-15
11
-22.324854798786291
21
34.517939620736392
31
3.0830661171222998e-15
0
LINE
5
295
100
AcDbEntity
8
0
100
AcDbLine
10
-22.324854798786291
20
34.517939620736392
30
3.0830661171222998e-15
11
-22.324854798786312
21
34.752314620736392
31
3.0830661171222998e-15
0
LINE
5
296
100
AcDbEntity
8
0
100
AcDbLine
10
-22.582667239181632
20
34.369502076032909
30
3.051493199131246e-15
11
-22.262354783885115
21
34.369502076032909
31
3.0907201614418368e-15
0
LINE
5
297
100
AcDbEntity
8
0
100
AcDbLine
10
-22.262354783885115
20
34.369502076032909
30
3.0907201614418368e-15
11
-22.34047978388508
21
34.04137709093407
31
3.0811526083234981e-15
0
LINE
5
298
100
AcDbEntity
8
0
100
AcDbLine
10
-22.34047978388508
20
34.04137709093407
30
3.0811526083234981e-15
11
-22.488917254082757
21
34.04137709093407
31
3.0629742610483865e-15
0
LINE
5
299
100
AcDbEntity
8
0
100
AcDbLine
10
-22.488917254082757
20
34.04137709093407
30
3.0629742610483865e-15
11
-22.582667239181632
21
34.369502076032909
31
3.051493199131246e-15
0
LINE
5
300
100
AcDbEntity
8
0
100
AcDbLine
10
-25.379542328588521
20
33.658564620736385
30
2.7089747865455251e-15
11
-25.37954232858845
21
32.971064531329418
31
2.7089747865455251e-15
0
LINE
5
301
100
AcDbEntity
8
0
100
AcDbLine
10
-25.379542328588457
20
32.971064531329418
30
2.7089747865455251e-15
11
-25.223292328588457
21
32.971064531329418
31
2.7281098927822025e-15
0
LINE
5
302
100
AcDbEntity
8
0
100
AcDbLine
10
-25.223292328588457
20
32.971064531329418
30
2.7281098927822025e-15
11
-25.22329232858846
21
33.010127031329418
31
2.7281098927822025e-15
0
LINE
5
303
100
AcDbEntity
8
0
100
AcDbLine
10
-25.22329232858846
20
33.010127031329418
30
2.7281098927822025e-15
11
-24.512354649774526
21
33.010127031329418
31
2.8151746480574761e-15
0
LINE
5
304
100
AcDbEntity
8
0
100
AcDbLine
10
-24.512354649774526
20
33.010127031329418
30
2.8151746480574753e-15
11
-24.512354649774522
21
32.947627090934063
31
2.8151746480574753e-15
0
LINE
5
305
100
AcDbEntity
8
0
100
AcDbLine
10
-24.512354649774515
20
32.947627090934063
30
2.8151746480574753e-15
11
-24.356104649774515
21
32.947627090934063
31
2.8343097542941526e-15
0
LINE
5
306
100
AcDbEntity
8
0
100
AcDbLine
10
-24.356104649774515
20
32.947627090934063
30
2.8343097542941526e-15
11
-24.356104649774572
21
33.471064501527096
31
2.8343097542941526e-15
0
SPLINE
5
307
100
AcDbEntity
8
0
100
AcDbSpline
70
0
71
2
72
6
73
3
74
0
42
0.000000001
43
0.0000000001
44
0.0000000001
40
0
40
0
40
0
40
1
40
1
40
1
10
-24.356104649774572
20
33.471064501527096
30
2.8343097542941526e-15
10
-24.184229888193144
20
33.416377090934063
30
2.8553583419566431e-15
10
-23.902979858390815
20
33.338252090934063
30
2.8898015368323944e-15
0
LINE
5
308
100
AcDbEntity
8
0
100
AcDbLine
10
-23.902979858390815
20
33.338252090934063
30
2.8898015368323944e-15
11
-23.848292298786184
21
33.48668956113174
31
2.8964988313146949e-15
0
SPLINE
5
309
100
AcDbEntity
8
0
100
AcDbSpline
70
0
71
2
72
6
73
3
74
0
42
0.000000001
43
0.0000000001
44
0.0000000001
40
0
40
0
40
0
40
1
40
1
40
1
10
-23.848292298786184
20
33.48668956113174
30
2.8964988313146949e-15
10
-24.348292268983872
20
33.588252001527096
30
2.8352664950070594e-15
10
-24.66079226898389
20
33.76012706113174
30
2.7969962825337046e-15
0
LINE
5
310
100
AcDbEntity
8
0
100
AcDbLine
10
-24.66079226898389
20
33.76012706113174
30
2.7969962825337046e-15
11
-23.910792239181568
21
33.76012706113174
31
2.8888447961194876e-15
0
LINE
5
311
100
AcDbEntity
8
0
100
AcDbLine
10
-23.910792239181568
20
33.76012706113174
30
2.8888447961194876e-15
11
-23.910792239181582
21
33.908564531329418
31
2.8888447961194876e-15
0
LINE
5
312
100
AcDbEntity
8
0
100
AcDbLine
10
-23.910792239181582
20
33.908564531329418
30
2.8888447961194876e-15
11
-24.60610470937926
21
33.908564531329418
31
2.8036935770160052e-15
0
LINE
5
313
100
AcDbEntity
8
0
100
AcDbLine
10
-24.60610470937926
20
33.908564531329418
30
2.8036935770160052e-15
11
-24.606104709379274
21
34.03356456113174
31
2.8036935770160052e-15
0
LINE
5
314
100
AcDbEntity
8
0
100
AcDbLine
10
-24.606104709379274
20
34.03356456113174
30
2.8036935770160052e-15
11
-24.160792298786241
21
34.03356456113174
31
2.8582286188413402e-15
0
LINE
5
315
100
AcDbEntity
8
0
100
AcDbLine
10
-24.160792298786241
20
34.03356456113174
30
2.8582286188413402e-15
11
-24.160792298786255
21
34.158564590934063
31
2.8582286188413402e-15
0
LINE
5
316
100
AcDbEntity
8
0
100
AcDbLine
10
-24.160792298786255
20
34.158564590934063
30
2.8582286188413402e-15
11
-24.606104709379288
21
34.158564590934063
31
2.8036935770160052e-15
0
LINE
5
317
100
AcDbEntity
8
0
100
AcDbLine
10
-24.606104709379288
20
34.158564590934063
30
2.8036935770160052e-15
11
-24.606104709379299
21
34.283564620736385
31
2.8036935770160052e-15
0
LINE
5
318
100
AcDbEntity
8
0
100
AcDbLine
10
-24.606104709379299
20
34.283564620736385
30
2.8036935770160052e-15
11
-24.332667209379299
21
34.283564620736385
31
2.8371800129301908e-15
0
LINE
5
319
100
AcDbEntity
8
0
100
AcDbLine
10
-24.332667209379299
20
34.283564620736385
30
2.8371800129301908e-15
11
-24.059229858390911
21
34.283564620736385
31
2.870666430595717e-15
0
LINE
5
320
100
AcDbEntity
8
0
100
AcDbLine
10
-24.059229858390911
20
34.283564620736385
30
2.870666430595717e-15
11
-24.059229858390957
21
34.713252120736385
31
2.870666430595717e-15
0
LINE
5
321
100
AcDbEntity
8
0
100
AcDbLine
10
-24.059229858390957
20
34.713252120736385
30
2.870666430595717e-15
11
-25.465480007402569
21
34.713252120736385
31
2.6984504562169609e-15
0
LINE
5
322
100
AcDbEntity
8
0
100
AcDbLine
10
-25.465480007402569
20
34.713252120736385
30
2.6984504562169609e-15
11
-25.465480007402522
21
34.283564620736385
31
2.6984504562169609e-15
0
LINE
5
323
100
AcDbEntity
8
0
100
AcDbLine
10
-25.465480007402522
20
34.283564620736385
30
2.6984504562169609e-15
11
-24.762354709379299
21
34.283564620736385
31
2.7845584707793278e-15
0
LINE
5
324
100
AcDbEntity
8
0
100
AcDbLine
10
-24.762354709379299
20
34.283564620736385
30
2.7845584707793278e-15
11
-24.762354709379288
21
34.158564590934063
31
2.7845584707793278e-15
0
LINE
5
325
100
AcDbEntity
8
0
100
AcDbLine
10
-24.762354709379288
20
34.158564590934063
30
2.7845584707793278e-15
11
-25.152980007402512
21
34.158564590934063
31
2.7367206686903157e-15
0
LINE
5
326
100
AcDbEntity
8
0
100
AcDbLine
10
-25.152980007402512
20
34.158564590934063
30
2.7367206686903157e-15
11
-25.152980007402501
21
34.088252120736385
31
2.7367206686903157e-15
0
SPLINE
5
327
100
AcDbEntity
8
0
100
AcDbSpline
70
0
71
2
72
6
73
3
74
0
42
0.000000001
43
0.0000000001
44
0.0000000001
40
0
40
0
40
0
40
1
40
1
40
1
10
-25.152980007402501
20
34.088252120736385
30
2.7367206686903157e-15
10
-25.215479649774643
20
34.142939531329418
30
2.7290666699924271e-15
10
-25.28579226898394
20
34.22887706113174
30
2.7204558575869952e-15
0
LINE
5
328
100
AcDbEntity
8
0
100
AcDbLine
10
-25.28579226898394
20
34.22887706113174
30
2.7204558575869952e-15
11
-25.434229888193222
21
34.142939531329418
31
2.7022774920632241e-15
0
SPLINE
5
329
100
AcDbEntity
8
0
100
AcDbSpline
70
0
71
2
72
6
73
3
74
0
42
0.000000001
43
0.0000000001
44
0.0000000001
40
0
40
0
40
0
40
1
40
1
40
1
10
-25.434229888193222
20
34.142939531329418
30
2.7022774920632238e-15
10
-25.45766732858857
20
34.11168956113174
30
2.6994072334271856e-15
10
-25.387355007402505
20
34.11168956113174
30
2.7080180093352996e-15
0
SPLINE
5
330
100
AcDbEntity
8
0
100
AcDbSpline
70
0
71
2
72
6
73
3
74
0
42
0.000000001
43
0.0000000001
44
0.0000000001
40
0
40
0
40
0
40
1
40
1
40
1
10
-25.387355007402505
20
34.11168956113174
30
2.7080180093352996e-15
10
-25.254542149774622
20
33.99450206113174
30
2.724282893433258e-15
10
-25.121729888193194
20
33.908564531329418
30
2.7405477045365785e-15
0
LINE
5
331
100
AcDbEntity
8
0
100
AcDbLine
10
-25.121729888193194
20
33.908564531329418
30
2.7405477045365785e-15
11
-25.652979828588549
21
33.908564531329418
31
2.6754883506313391e-15
0
LINE
5
332
100
AcDbEntity
8
0
100
AcDbLine
10
-25.652979828588549
20
33.908564531329418
30
2.6754883506313391e-15
11
-25.652979828588535
21
33.76012706113174
31
2.6754883506313391e-15
0
LINE
5
333
100
AcDbEntity
8
0
100
AcDbLine
10
-25.652979828588535
20
33.76012706113174
30
2.6754883506313391e-15
11
-24.92641738819318
21
33.76012706113174
31
2.7644665873324254e-15
0
SPLINE
5
334
100
AcDbEntity
8
0
100
AcDbSpline
70
0
71
2
72
6
73
3
74
0
42
0.000000001
43
0.0000000001
44
0.0000000001
40
0
40
0
40
0
40
1
40
1
40
1
10
-24.92641738819318
20
33.76012706113174
30
2.7644665873324258e-15
10
-24.840479709379242
20
33.705439501527096
30
2.7749909176609891e-15
10
-24.723292209379231
20
33.658564620736385
30
2.7893422473384974e-15
0
LINE
5
335
100
AcDbEntity
8
0
100
AcDbLine
10
-24.723292209379231
20
33.658564620736385
30
2.7893422473384974e-15
11
-25.379542328588521
21
33.658564620736385
31
2.7089747865455247e-15
0
LINE
5
336
100
AcDbEntity
8
0
100
AcDbLine
10
-24.48110482858862
20
34.588252090934063
30
2.8190016474064198e-15
11
-24.215479858390943
21
34.588252090934063
31
2.8515313243590396e-15
0
LINE
5
337
100
AcDbEntity
8
0
100
AcDbLine
10
-24.215479858390943
20
34.588252090934063
30
2.8515313243590396e-15
11
-24.215479858390925
21
34.408564650538707
31
2.8515313243590396e-15
0
LINE
5
338
100
AcDbEntity
8
0
100
AcDbLine
10
-24.215479858390925
20
34.408564650538707
30
2.8515313243590396e-15
11
-24.481104828588602
21
34.408564650538707
31
2.8190016474064198e-15
0
LINE
5
339
100
AcDbEntity
8
0
100
AcDbLine
10
-24.481104828588602
20
34.408564650538707
30
2.8190016474064198e-15
11
-24.48110482858862
21
34.588252090934063
31
2.8190016474064198e-15
0
LINE
5
340
100
AcDbEntity
8
0
100
AcDbLine
10
-24.87172982858862
20
34.588252090934063
30
2.7711638818147263e-15
11
-24.63735482858862
21
34.588252090934063
31
2.7998665411697424e-15
0
LINE
5
341
100
AcDbEntity
8
0
100
AcDbLine
10
-24.63735482858862
20
34.588252090934063
30
2.7998665411697424e-15
11
-24.637354828588602
21
34.408564650538707
31
2.7998665411697424e-15
0
LINE
5
342
100
AcDbEntity
8
0
100
AcDbLine
10
-24.637354828588602
20
34.408564650538707
30
2.7998665411697424e-15
11
-24.871729828588602
21
34.408564650538707
31
2.7711638818147263e-15
0
LINE
5
343
100
AcDbEntity
8
0
100
AcDbLine
10
-24.871729828588602
20
34.408564650538707
30
2.7711638818147263e-15
11
-24.87172982858862
21
34.588252090934063
31
2.7711638818147263e-15
0
LINE
5
344
100
AcDbEntity
8
0
100
AcDbLine
10
-25.309230007402554
20
34.588252090934063
30
2.7175855624536383e-15
11
-25.02797982858862
21
34.588252090934063
31
2.752028775578049e-15
0
LINE
5
345
100
AcDbEntity
8
0
100
AcDbLine
10
-25.02797982858862
20
34.588252090934063
30
2.752028775578049e-15
11
-25.027979828588602
21
34.408564650538707
31
2.752028775578049e-15
0
LINE
5
346
100
AcDbEntity
8
0
100
AcDbLine
10
-25.027979828588602
20
34.408564650538707
30
2.752028775578049e-15
11
-25.309230007402537
21
34.408564650538707
31
2.7175855624536383e-15
0
LINE
5
347
100
AcDbEntity
8
0
100
AcDbLine
10
-25.309230007402537
20
34.408564650538707
30
2.7175855624536383e-15
11
-25.309230007402554
21
34.588252090934063
31
2.7175855624536383e-15
0
SPLINE
5
348
100
AcDbEntity
8
0
100
AcDbSpline
70
0
71
2
72
6
73
3
74
0
42
0.000000001
43
0.0000000001
44
0.0000000001
40
0
40
0
40
0
40
1
40
1
40
1
10
-24.887354888193194
20
33.908564531329418
30
2.7692503638915949e-15
10
-24.949854828588553
20
33.939814501527096
30
2.7615963286963877e-15
10
-25.082667388193208
20
34.03356456113174
30
2.745331481095748e-15
0
LINE
5
349
100
AcDbEntity
8
0
100
AcDbLine
10
-25.082667388193208
20
34.03356456113174
30
2.745331481095748e-15
11
-24.762354709379274
21
34.03356456113174
31
2.7845584707793278e-15
0
LINE
5
350
100
AcDbEntity
8
0
100
AcDbLine
10
-24.762354709379274
20
34.03356456113174
30
2.7845584707793278e-15
11
-24.76235470937926
21
33.908564531329418
31
2.7845584707793278e-15
0
LINE
5
351
100
AcDbEntity
8
0
100
AcDbLine
10
-24.76235470937926
20
33.908564531329418
30
2.7845584707793278e-15
11
-24.887354888193194
21
33.908564531329418
31
2.7692503638915945e-15
0
LINE
5
352
100
AcDbEntity
8
0
100
AcDbLine
10
-25.223292328588485
20
33.275752001527096
30
2.7281098927822025e-15
11
-24.512354649774551
21
33.275752001527096
31
2.8151746480574761e-15
0
LINE
5
353
100
AcDbEntity
8
0
100
AcDbLine
10
-24.512354649774551
20
33.275752001527096
30
2.8151746480574753e-15
11
-24.51235464977454
21
33.158564501527096
31
2.8151746480574753e-15
0
LINE
5
354
100
AcDbEntity
8
0
100
AcDbLine
10
-24.51235464977454
20
33.158564501527096
30
2.8151746480574753e-15
11
-25.223292328588474
21
33.158564501527096
31
2.7281098927822021e-15
0
LINE
5
355
100
AcDbEntity
8
0
100
AcDbLine
10
-25.223292328588474
20
33.158564501527096
30
2.7281098927822025e-15
11
-25.223292328588485
21
33.275752001527096
31
2.7281098927822025e-15
0
LINE
5
356
100
AcDbEntity
8
0
100
AcDbLine
10
-25.22329232858851
20
33.510127001527096
30
2.7281098927822025e-15
11
-24.512354649774576
21
33.510127001527096
31
2.8151746480574761e-15
0
LINE
5
357
100
AcDbEntity
8
0
100
AcDbLine
10
-24.512354649774576
20
33.510127001527096
30
2.8151746480574753e-15
11
-24.512354649774561
21
33.400752031329418
31
2.8151746480574753e-15
0
LINE
5
358
100
AcDbEntity
8
0
100
AcDbLine
10
-24.512354649774561
20
33.400752031329418
30
2.8151746480574753e-15
11
-25.223292328588496
21
33.400752031329418
31
2.7281098927822021e-15
0
LINE
5
359
100
AcDbEntity
8
0
100
AcDbLine
10
-25.223292328588496
20
33.400752031329418
30
2.7281098927822025e-15
11
-25.22329232858851
21
33.510127001527096
31
2.7281098927822025e-15
0
SPLINE
5
360
100
AcDbEntity
8
0
100
AcDbSpline
70
0
71
2
72
6
73
3
74
0
42
0.000000001
43
0.0000000001
44
0.0000000001
40
0
40
0
40
0
40
1
40
1
40
1
10
-26.762354888193212
20
34.07262706113174
30
2.5396290890514661e-15
10
-26.934230245821098
20
34.236689590934063
30
2.5185804283943386e-15
10
-27.090480245821116
20
34.439814620736385
30
2.4994453221576613e-15
0
LINE
5
361
100
AcDbEntity
8
0
100
AcDbLine
10
-27.090480245821116
20
34.439814620736385
30
2.4994453221576613e-15
11
-26.574855067007181
21
34.439814620736385
31
2.562591194637088e-15
0
LINE
5
362
100
AcDbEntity
8
0
100
AcDbLine
10
-26.574855067007181
20
34.439814620736385
30
2.562591194637088e-15
11
-26.457667567007164
21
34.275752090934063
31
2.5769425243145958e-15
0
SPLINE
5
363
100
AcDbEntity
8
0
100
AcDbSpline
70
0
71
2
72
6
73
3
74
0
42
0.000000001
43
0.0000000001
44
0.0000000001
40
0
40
0
40
0
40
1
40
1
40
1
10
-26.457667567007167
20
34.275752090934063
30
2.5769425243145958e-15
10
-26.629542626611801
20
34.182002105835224
30
2.555893900154787e-15
10
-26.762354888193212
20
34.07262706113174
30
2.5396290890514661e-15
0
SPLINE
5
364
100
AcDbEntity
8
0
100
AcDbSpline
70
0
71
2
72
6
73
3
74
0
42
0.000000001
43
0.0000000001
44
0.0000000001
40
0
40
0
40
0
40
1
40
1
40
1
10
-27.324855245821119
20
34.46325206113174
30
2.4707426628026452e-15
10
-27.059230126611791
20
34.080439590934063
30
2.5032723580039241e-15
10
-26.707667626611766
20
33.814814546230579
30
2.5463263470364479e-15
0
LINE
5
365
100
AcDbEntity
8
0
100
AcDbLine
10
-26.707667626611766
20
33.814814546230579
30
2.5463263470364479e-15
11
-27.434229768983897
21
33.814814546230579
31
2.4573481468326808e-15
0
LINE
5
366
100
AcDbEntity
8
0
100
AcDbLine
10
-27.434229768983897
20
33.814814546230579
30
2.4573481468326808e-15
11
-27.434229768983812
21
33.002314501527096
31
2.4573481468326808e-15
0
LINE
5
367
100
AcDbEntity
8
0
100
AcDbLine
10
-27.434229768983812
20
33.002314501527096
30
2.4573481468326808e-15
11
-27.277979768983812
21
33.002314501527096
31
2.4764832530693582e-15
0
LINE
5
368
100
AcDbEntity
8
0
100
AcDbLine
10
-27.277979768983812
20
33.002314501527096
30
2.4764832530693582e-15
11
-27.277979768983819
21
33.072627120736385
31
2.4764832530693582e-15
0
LINE
5
369
100
AcDbEntity
8
0
100
AcDbLine
10
-27.277979768983819
20
33.072627120736385
30
2.4764832530693582e-15
11
-26.567042388193109
21
33.072627120736385
31
2.5635479718473126e-15
0
LINE
5
370
100
AcDbEntity
8
0
100
AcDbLine
10
-26.567042388193109
20
33.072627120736385
30
2.5635479718473126e-15
11
-26.567042388193101
21
32.97887706113174
31
2.5635479718473126e-15
0
LINE
5
371
100
AcDbEntity
8
0
100
AcDbLine
10
-26.567042388193101
20
32.97887706113174
30
2.5635479718473126e-15
11
-26.410792388193101
21
32.97887706113174
31
2.58268307808399e-15
0
LINE
5
372
100
AcDbEntity
8
0
100
AcDbLine
10
-26.410792388193101
20
32.97887706113174
30
2.58268307808399e-15
11
-26.410792388193165
21
33.611689590934063
31
2.58268307808399e-15
0
SPLINE
5
373
100
AcDbEntity
8
0
100
AcDbSpline
70
0
71
2
72
6
73
3
74
0
42
0.000000001
43
0.0000000001
44
0.0000000001
40
0
40
0
40
0
40
1
40
1
40
1
10
-26.410792388193162
20
33.611689590934063
30
2.58268307808399e-15
10
-26.176417388193151
20
33.478877031329418
30
2.6113857374390065e-15
10
-25.981104888193144
20
33.40856456113174
30
2.635304620234853e-15
0
LINE
5
374
100
AcDbEntity
8
0
100
AcDbLine
10
-25.981104888193144
20
33.40856456113174
30
2.635304620234853e-15
11
-25.918604947797807
21
33.588252001527096
31
2.6429586554300602e-15
0
SPLINE
5
375
100
AcDbEntity
8
0
100
AcDbSpline
70
0
71
2
72
6
73
3
74
0
42
0.000000001
43
0.0000000001
44
0.0000000001
40
0
40
0
40
0
40
1
40
1
40
1
10
-25.918604947797807
20
33.588252001527096
30
2.6429586554300602e-15
10
-26.285792507402462
20
33.689814590934063
30
2.5979911484744046e-15
10
-26.62954262661178
20
33.963252090934063
30
2.555893900154787e-15
0
SPLINE
5
376
100
AcDbEntity
8
0
100
AcDbSpline
70
0
71
2
72
6
73
3
74
0
42
0.000000001
43
0.0000000001
44
0.0000000001
40
0
40
0
40
0
40
1
40
1
40
1
10
-26.62954262661178
20
33.963252090934063
30
2.555893900154787e-15
10
-26.559230007402498
20
34.041377090934063
30
2.5645047125602194e-15
10
-26.371729888193222
20
34.166377046230579
30
2.5874668546431595e-15
0
SPLINE
5
377
100
AcDbEntity
8
0
100
AcDbSpline
70
0
71
2
72
6
73
3
74
0
42
0.000000001
43
0.0000000001
44
0.0000000001
40
0
40
0
40
0
40
1
40
1
40
1
10
-26.371729888193222
20
34.166377046230579
30
2.5874668546431595e-15
10
-26.215479888193208
20
34.017939576032902
30
2.6066019608798369e-15
10
-26.027980067007128
20
33.91637706113174
30
2.6295640664654588e-15
0
LINE
5
378
100
AcDbEntity
8
0
100
AcDbLine
10
-26.027980067007128
20
33.91637706113174
30
2.6295640664654588e-15
11
-25.926417328588563
21
34.041377090934063
31
2.6420019147171543e-15
0
SPLINE
5
379
100
AcDbEntity
8
0
100
AcDbSpline
70
0
71
2
72
6
73
3
74
0
42
0.000000001
43
0.0000000001
44
0.0000000001
40
0
40
0
40
0
40
1
40
1
40
1
10
-25.926417328588563
20
34.041377090934063
30
2.6420019147171535e-15
10
-26.356104828588585
20
34.260127031329418
30
2.589380372566291e-15
10
-26.527979888193279
20
34.73668956113174
30
2.5683317484064822e-15
0
LINE
5
380
100
AcDbEntity
8
0
100
AcDbLine
10
-26.527979888193279
20
34.73668956113174
30
2.5683317484064822e-15
11
-26.699854947797917
21
34.69762706113174
31
2.5472831242466734e-15
0
SPLINE
5
381
100
AcDbEntity
8
0
100
AcDbSpline
70
0
71
2
72
6
73
3
74
0
42
0.000000001
43
0.0000000001
44
0.0000000001
40
0
40
0
40
0
40
1
40
1
40
1
10
-26.699854947797917
20
34.69762706113174
30
2.5472831242466734e-15
10
-26.731105067007206
20
34.666377090934063
30
2.5434560884004106e-15
10
-26.676417507402562
20
34.65856456113174
30
2.5501533828827115e-15
0
LINE
5
382
100
AcDbEntity
8
0
100
AcDbLine
10
-26.676417507402562
20
34.65856456113174
30
2.5501533828827115e-15
11
-26.645167388193265
21
34.588252090934063
31
2.5539804187289744e-15
0
LINE
5
383
100
AcDbEntity
8
0
100
AcDbLine
10
-26.645167388193265
20
34.588252090934063
30
2.5539804187289744e-15
11
-27.168605245821134
21
34.588252090934063
31
2.4898777690393226e-15
0
LINE
5
384
100
AcDbEntity
8
0
100
AcDbLine
10
-27.168605245821134
20
34.588252090934063
30
2.4898777690393226e-15
11
-27.184230007402558
21
34.61950206113174
31
2.4879642876135099e-15
0
LINE
5
385
100
AcDbEntity
8
0
100
AcDbLine
10
-27.184230007402554
20
34.61950206113174
30
2.4879642876135099e-15
11
-27.348292388193251
21
34.50231456113174
31
2.4678724406639258e-15
0
SPLINE
5
386
100
AcDbEntity
8
0
100
AcDbSpline
70
0
71
2
72
6
73
3
74
0
42
0.000000001
43
0.0000000001
44
0.0000000001
40
0
40
0
40
0
40
1
40
1
40
1
10
-27.348292388193258
20
34.50231456113174
30
2.4678724406639258e-15
10
-27.37954250740254
20
34.471064590934063
30
2.464045404817663e-15
10
-27.324855245821119
20
34.46325206113174
30
2.4707426628026452e-15
0
LINE
5
387
100
AcDbEntity
8
0
100
AcDbLine
10
-27.277979768983883
20
33.666377076032902
30
2.4764832530693582e-15
11
-26.567042388193173
21
33.666377076032902
31
2.5635479718473126e-15
0
LINE
5
388
100
AcDbEntity
8
0
100
AcDbLine
10
-26.567042388193173
20
33.666377076032902
30
2.5635479718473126e-15
11
-26.567042388193126
21
33.221064590934063
31
2.5635479718473126e-15
0
LINE
5
389
100
AcDbEntity
8
0
100
AcDbLine
10
-26.567042388193123
20
33.221064590934063
30
2.5635479718473126e-15
11
-27.277979768983833
21
33.221064590934063
31
2.4764832530693582e-15
0
LINE
5
390
100
AcDbEntity
8
0
100
AcDbLine
10
-27.277979768983833
20
33.221064590934063
30
2.4764832530693582e-15
11
-27.277979768983876
21
33.666377076032902
31
2.4764832530693582e-15
0
ENDSEC
0
SECTION
2
OBJECTS
0
DICTIONARY
5
C
100
AcDbDictionary
3
ACAD_GROUP
350
D
3
ACAD_MLINESTYLE
350
17
0
DICTIONARY
5
D
100
AcDbDictionary
0
DICTIONARY
5
1A
330
C
100
AcDbDictionary
0
DICTIONARY
5
17
100
AcDbDictionary
0
ENDSEC
0
EOF
