0
SECTION
2
HEADER
9
$INSUNITS
70
4
9
$ACADVER
1
AC1014
9
$HANDSEED
5
FFFF
0
ENDSEC
0
SECTION
2
TABLES
0
TABLE
2
VPORT
5
8
100
AcDbSymbolTable
0
ENDTAB
0
TABLE
2
LTYPE
5
5
100
AcDbSymbolTable
0
LTYPE
5
14
100
AcDbSymbolTableRecord
100
AcDbLinetypeTableRecord
2
BYBLOCK
70
0
0
LTYPE
5
15
100
AcDbSymbolTableRecord
100
AcDbLinetypeTableRecord
2
BYLAYER
70
0
0
ENDTAB
0
TABLE
2
LAYER
5
2
100
AcDbSymbolTable
70
2
0
LAYER
5
50
100
AcDbSymbolTableRecord
100
AcDbLayerTableRecord
2
0
70
0
6
CONTINUOUS
0
ENDTAB
0
TABLE
2
STYLE
5
3
100
AcDbSymbolTable
70
1
0
STYLE
5
11
100
AcDbSymbolTableRecord
100
AcDbTextStyleTableRecord
2
STANDARD
70
0
0
ENDTAB
0
TABLE
2
VIEW
5
6
100
AcDbSymbolTable
70
0
0
ENDTAB
0
TABLE
2
UCS
5
7
100
AcDbSymbolTable
70
0
0
ENDTAB
0
TABLE
2
APPID
5
9
100
AcDbSymbolTable
70
2
0
APPID
5
12
100
AcDbSymbolTableRecord
100
AcDbRegAppTableRecord
2
ACAD
70
0
0
ENDTAB
0
TABLE
2
DIMSTYLE
5
A
100
AcDbSymbolTable
70
1
0
ENDTAB
0
TABLE
2
BLOCK_RECORD
5
1
100
AcDbSymbolTable
70
1
0
BLOCK_RECORD
5
1F
100
AcDbSymbolTableRecord
100
AcDbBlockTableRecord
2
*MODEL_SPACE
0
BLOCK_RECORD
5
1B
100
AcDbSymbolTableRecord
100
AcDbBlockTableRecord
2
*PAPER_SPACE
0
ENDTAB
0
ENDSEC
0
SECTION
2
BLOCKS
0
BLOCK
5
20
100
AcDbEntity
100
AcDbBlockBegin
2
*MODEL_SPACE
0
ENDBLK
5
21
100
AcDbEntity
100
AcDbBlockEnd
0
BLOCK
5
1C
100
AcDbEntity
100
AcDbBlockBegin
2
*PAPER_SPACE
0
ENDBLK
5
1D
100
AcDbEntity
100
AcDbBlockEnd
0
ENDSEC
0
SECTION
2
ENTITIES
0
LWPOLYLINE
5
100
100
AcDbEntity
8
0
100
AcDbPolyline
90
8
70
1
43
0.0
10
-103.50000154972076
20
48.200000745058063
10
-22.500001549720743
20
48.200000745058063
42
0.41421356237308982
10
-22.000001549720754
20
48.700000745058063
10
-22.00000154972075
20
51.300000745058071
42
0.41421356237309764
10
-22.50000154972075
20
51.800000745058064
10
-103.50000154972076
20
51.800000745058064
42
0.41421356237310542
10
-104.00000154972076
20
51.300000745058071
10
-104.00000154972076
20
48.700000745058063
42
0.41421356237308982
0
LWPOLYLINE
5
101
100
AcDbEntity
8
0
100
AcDbPolyline
90
28
70
1
43
0.0
10
-99.500001490116119
20
2.0000000298023228
10
-22.500000327825546
20
2.0000000298023224
42
0.41421356237309503
10
-22.000000327825546
20
2.5000000298023224
10
-22.000000327825546
20
3.4999999105930328
42
0.41421356237309537
10
-22.500000327825546
20
3.9999999105930328
10
-84.000001259148121
20
3.9999999105930248
42
-0.41421356237309537
10
-84.500001259148121
20
4.4999999105930328
10
-84.500001259148121
20
10.500000163912773
42
-0.41421356237309631
10
-84.000001259148121
20
11.000000163912773
10
-80.500001192092896
20
11.000000163912773
42
0.41421356237309631
10
-80.000001192092896
20
11.500000163912773
10
-80.000001192092896
20
20.500000312924385
42
0.41421356237309503
10
-80.500001192092896
20
21.000000312924385
10
-81.500001221895218
20
21.000000312924378
42
-0.41421356237309503
10
-82.000001221895218
20
21.500000312924385
10
-82.000001221895218
20
29.500000447034836
42
0.41421356237309503
10
-82.500001221895218
20
30.000000447034836
10
-85.500001281499863
20
30.000000447034829
42
-0.41421356237309503
10
-86.000001281499863
20
30.500000447034836
10
-86.000001281499863
20
38.500000581145287
42
0.41421356237309503
10
-86.500001281499863
20
39.000000581145287
10
-97.500001460313797
20
39.000000581145287
42
0.41421356237309503
10
-98.000001460313797
20
38.500000581145287
10
-98.000001460313797
20
30.500000447034836
42
-0.41421356237309503
10
-98.500001460313797
20
30.000000447034836
10
-99.500001490116119
20
30.000000447034836
42
0.41421356237309503
10
-100.00000149011612
20
29.500000447034836
10
-100.00000149011612
20
2.5000000298023206
42
0.4142135623730947
0
ARC
5
102
100
AcDbEntity
8
0
100
AcDbCircle
10
-105.5000015795231
20
47.000000685453415
30
0
40
0.49999999999998934
210
0
220
0
230
1
100
AcDbArc
50
180
51
270.00000000000159
0
ARC
5
103
100
AcDbEntity
8
0
100
AcDbCircle
10
-101.50000157952309
20
37.699999168515212
30
0
40
0.50000000000000711
210
0
220
0
230
1
100
AcDbArc
50
270.00000000000159
51
360
0
LINE
5
104
100
AcDbEntity
8
0
100
AcDbLine
10
-106.00000157952309
20
47.000000685453415
30
0
11
-106.00000157952309
21
47.500000707805157
31
0
0
LINE
5
105
100
AcDbEntity
8
0
100
AcDbLine
10
-101.00000157952309
20
46.000000685453415
30
0
11
-101.00000157952309
21
37.699999168515205
31
0
0
LINE
5
106
100
AcDbEntity
8
0
100
AcDbLine
10
-101.50000157952307
20
37.199999168515205
30
0
11
-105.50000157952309
21
37.199999168515205
31
0
0
ARC
5
107
100
AcDbEntity
8
0
100
AcDbCircle
10
-101.50000157952307
20
46.000000685453415
30
0
40
0.49999999999998934
210
0
220
-0
230
1
100
AcDbArc
50
0
51
90.000000000001634
0
ARC
5
108
100
AcDbEntity
8
0
100
AcDbCircle
10
-105.00000029802322
20
53.000000000000014
30
0
40
0.99999999999999645
210
-0
220
0
230
1
100
AcDbArc
50
90
51
180
0
ARC
5
109
100
AcDbEntity
8
0
100
AcDbCircle
10
-105.50000157952309
20
36.699999168515198
30
0
40
0.50000000000000711
210
0
220
-0
230
1
100
AcDbArc
50
90
51
180
0
LINE
5
110
100
AcDbEntity
8
0
100
AcDbLine
10
-106.00000157952309
20
36.699999168515205
30
0
11
-106.00000157952309
21
36.199999190866947
31
0
0
LINE
5
111
100
AcDbEntity
8
0
100
AcDbLine
10
-105.50000157952309
20
46.500000685453415
30
0
11
-101.50000157952309
21
46.500000685453415
31
0
0
ENDSEC
0
SECTION
2
OBJECTS
0
DICTIONARY
5
C
100
AcDbDictionary
3
ACAD_GROUP
350
D
3
ACAD_MLINESTYLE
350
17
0
DICTIONARY
5
D
100
AcDbDictionary
0
DICTIONARY
5
1A
330
C
100
AcDbDictionary
0
DICTIONARY
5
17
100
AcDbDictionary
0
ENDSEC
0
EOF
